<?xml version="1.0" encoding="UTF-8" standalone="no"?>
<!-- Created with Inkscape (http://www.inkscape.org/) -->

<svg
   width="208.43307mm"
   height="57.799904mm"
   viewBox="0 0 208.4331 57.799905"
   preserveAspectRatio="xMidYMid"
   version="1.1"
   id="svg1"
   inkscape:version="1.4.3 (fcd0343856, 2026-01-01)"
   sodipodi:docname="accession_tag.svg"
   inkscape:export-filename="accession_tag.png"
   inkscape:export-xdpi="300"
   inkscape:export-ydpi="300"
   xmlns:inkscape="http://www.inkscape.org/namespaces/inkscape"
   xmlns:sodipodi="http://sodipodi.sourceforge.net/DTD/sodipodi-0.dtd"
   xmlns="http://www.w3.org/2000/svg"
   xmlns:svg="http://www.w3.org/2000/svg">
  <sodipodi:namedview
     id="namedview1"
     pagecolor="#505050"
     bordercolor="#eeeeee"
     borderopacity="1"
     inkscape:showpageshadow="0"
     inkscape:pageopacity="0"
     inkscape:pagecheckerboard="0"
     inkscape:deskcolor="#d1d1d1"
     inkscape:document-units="mm"
     inkscape:zoom="1.4992291"
     inkscape:cx="410.21082"
     inkscape:cy="171.42143"
     inkscape:window-width="3440"
     inkscape:window-height="1284"
     inkscape:window-x="0"
     inkscape:window-y="0"
     inkscape:window-maximized="1"
     inkscape:current-layer="layer1"
     showgrid="false" />
  <defs
     id="defs1">
    <rect
       x="-372.19128"
       y="20.677294"
       width="881.7865"
       height="146.07507"
       id="rect2" />
    <rect
       x="-372.19128"
       y="20.677294"
       width="881.7865"
       height="146.07507"
       id="rect2-7" />
  </defs>
  <g
     inkscape:label="Layer 1"
     inkscape:groupmode="layer"
     id="layer1"
     transform="translate(34.867536,-101.03425)">
    <g
       id="g9"
       transform="translate(0.528645)">
      <path
         style="font-size:6.35px;line-height:1;font-family:'Roboto Slab';-inkscape-font-specification:'Roboto Slab, Normal';text-align:start;text-anchor:start;fill:#4477ed;stroke:#4477ed;stroke-width:0.264582"
         d="m 45.638432,150.60623 0.334863,-0.0465 1.578198,-4.07727 h 0.523999 l 1.550293,4.07727 0.331763,0.0465 v 0.39067 h -1.296045 v -0.39067 l 0.341064,-0.0589 -0.297656,-0.83096 h -1.807642 l -0.306958,0.83096 0.341065,0.0589 v 0.39067 h -1.292944 z m 1.447973,-1.40146 h 1.432471 l -0.700733,-1.93787 h -0.0186 z m 4.81521,1.37976 q 0.303858,0 0.533301,-0.18604 0.232544,-0.18914 0.232544,-0.46199 h 0.548804 l 0.0062,0.0186 q 0.0155,0.43408 -0.387574,0.77204 -0.399975,0.33487 -0.933276,0.33487 -0.731738,0 -1.119311,-0.47749 -0.384473,-0.47749 -0.384473,-1.19993 v -0.13023 q 0,-0.71623 0.387573,-1.19372 0.387573,-0.48059 1.116211,-0.48059 0.403076,0 0.722437,0.13332 0.322461,0.13333 0.5333,0.36587 l 0.02791,0.74414 h -0.486792 l -0.133326,-0.5271 q -0.10852,-0.10542 -0.279052,-0.17053 -0.170532,-0.0651 -0.384473,-0.0651 -0.480591,0 -0.68833,0.34726 -0.204639,0.34417 -0.204639,0.84646 v 0.13023 q 0,0.5147 0.204639,0.85886 0.204639,0.34107 0.68833,0.34107 z m 3.423047,0 q 0.303858,0 0.533301,-0.18604 0.232544,-0.18914 0.232544,-0.46199 h 0.548804 l 0.0062,0.0186 q 0.0155,0.43408 -0.387573,0.77204 -0.399976,0.33487 -0.933277,0.33487 -0.731738,0 -1.119311,-0.47749 -0.384473,-0.47749 -0.384473,-1.19993 v -0.13023 q 0,-0.71623 0.387573,-1.19372 0.387573,-0.48059 1.116211,-0.48059 0.403076,0 0.722437,0.13332 0.322461,0.13333 0.5333,0.36587 l 0.02791,0.74414 h -0.486792 l -0.133325,-0.5271 q -0.108521,-0.10542 -0.279053,-0.17053 -0.170532,-0.0651 -0.384473,-0.0651 -0.480591,0 -0.68833,0.34726 -0.204639,0.34417 -0.204639,0.84646 v 0.13023 q 0,0.5147 0.204639,0.85886 0.204639,0.34107 0.68833,0.34107 z m 3.447852,0.47749 q -0.700732,0 -1.116211,-0.46509 -0.412378,-0.46819 -0.412378,-1.21233 v -0.13643 q 0,-0.71623 0.42478,-1.19062 0.427881,-0.47749 1.010791,-0.47749 0.675928,0 1.023194,0.40928 0.350366,0.40927 0.350366,1.0914 v 0.38137 h -2.176611 l -0.0093,0.0155 q 0.0093,0.48369 0.244946,0.79685 0.235645,0.31006 0.660425,0.31006 0.310059,0 0.542602,-0.0868 0.235645,-0.0899 0.406177,-0.24495 l 0.238745,0.39688 q -0.179834,0.17363 -0.47749,0.29455 -0.294556,0.11783 -0.710034,0.11783 z m -0.09302,-3.00137 q -0.306958,0 -0.523999,0.26045 -0.217041,0.25735 -0.26665,0.64802 l 0.0062,0.0155 h 1.547192 v -0.0806 q 0,-0.35967 -0.192236,-0.60152 -0.192236,-0.24184 -0.570508,-0.24184 z m 4.542359,0.63562 h -0.458887 l -0.09922,-0.40308 q -0.111621,-0.10542 -0.282153,-0.16743 -0.167432,-0.0651 -0.381372,-0.0651 -0.325562,0 -0.483692,0.14263 -0.15813,0.14262 -0.15813,0.34416 0,0.19844 0.139527,0.31316 0.139526,0.11472 0.567407,0.20464 0.63562,0.13642 0.945679,0.37207 0.310058,0.23254 0.310058,0.62632 0,0.44648 -0.362768,0.72243 -0.359668,0.27596 -0.942578,0.27596 -0.381372,0 -0.68523,-0.0868 -0.303857,-0.0899 -0.542602,-0.25735 l -0.0031,-0.76584 h 0.458887 l 0.114721,0.44958 q 0.10542,0.0961 0.285254,0.13953 0.182935,0.0434 0.372071,0.0434 0.325561,0 0.508496,-0.13023 0.186035,-0.13332 0.186035,-0.34726 0,-0.20154 -0.155029,-0.33177 -0.151929,-0.13022 -0.57981,-0.22634 -0.610815,-0.13333 -0.920874,-0.36277 -0.310059,-0.22944 -0.310059,-0.62012 0,-0.40927 0.347266,-0.69763 0.350366,-0.28835 0.908472,-0.28835 0.381372,0 0.685229,0.0992 0.303858,0.0992 0.505396,0.27595 z m 3.237011,0 H 65.99998 l -0.09922,-0.40308 q -0.111621,-0.10542 -0.282153,-0.16743 -0.167432,-0.0651 -0.381372,-0.0651 -0.325562,0 -0.483692,0.14263 -0.15813,0.14262 -0.15813,0.34416 0,0.19844 0.139527,0.31316 0.139526,0.11472 0.567407,0.20464 0.63562,0.13642 0.945679,0.37207 0.310058,0.23254 0.310058,0.62632 0,0.44648 -0.362768,0.72243 -0.359668,0.27596 -0.942578,0.27596 -0.381373,0 -0.68523,-0.0868 -0.303857,-0.0899 -0.542602,-0.25735 l -0.0031,-0.76584 h 0.458887 l 0.114721,0.44958 q 0.10542,0.0961 0.285254,0.13953 0.182935,0.0434 0.372071,0.0434 0.325561,0 0.508496,-0.13023 0.186035,-0.13332 0.186035,-0.34726 0,-0.20154 -0.15503,-0.33177 -0.151928,-0.13022 -0.579809,-0.22634 -0.610815,-0.13333 -0.920874,-0.36277 -0.310059,-0.22944 -0.310059,-0.62012 0,-0.40927 0.347266,-0.69763 0.350366,-0.28835 0.908472,-0.28835 0.381372,0 0.685229,0.0992 0.303858,0.0992 0.505396,0.27595 z m 0.669726,1.90996 0.505396,-0.0868 v -2.39675 l -0.505396,-0.0868 v -0.39377 h 1.116211 v 2.87734 l 0.505396,0.0868 v 0.39067 H 67.12859 Z m 1.116211,-3.82302 h -0.610815 v -0.62322 h 0.610815 z m 0.973585,2.50527 q 0,-0.74414 0.403076,-1.22473 0.403076,-0.48369 1.094507,-0.48369 0.694531,0 1.097607,0.48059 0.406177,0.48059 0.406177,1.22783 v 0.0682 q 0,0.75035 -0.403076,1.22784 -0.403077,0.47749 -1.094507,0.47749 -0.697632,0 -1.100708,-0.47749 -0.403076,-0.4806 -0.403076,-1.22784 z m 0.610815,0.0682 q 0,0.5333 0.223242,0.88057 0.226343,0.34727 0.669727,0.34727 0.434082,0 0.660425,-0.34727 0.226342,-0.34727 0.226342,-0.88057 v -0.0682 q 0,-0.5271 -0.226342,-0.87746 -0.226343,-0.35037 -0.666626,-0.35037 -0.440284,0 -0.663526,0.35037 -0.223242,0.35036 -0.223242,0.87746 z m 2.85874,1.24954 0.505395,-0.0868 v -2.39675 l -0.505395,-0.0868 v -0.39377 h 1.051098 l 0.04341,0.49919 q 0.167432,-0.26665 0.418579,-0.41237 0.254248,-0.14883 0.576709,-0.14883 0.542603,0 0.840259,0.31936 0.297656,0.31626 0.297656,0.97978 v 1.64021 l 0.505396,0.0868 v 0.39067 h -1.621607 v -0.39067 l 0.505396,-0.0868 v -1.6278 q 0,-0.44339 -0.176733,-0.62942 -0.173633,-0.18604 -0.533301,-0.18604 -0.26355,0 -0.468189,0.12713 -0.201538,0.12712 -0.322461,0.34726 v 1.96887 l 0.505396,0.0868 v 0.39067 h -1.621606 z"
         id="path2" />
      <path
         style="font-size:6.35px;line-height:1;font-family:'Roboto Slab';-inkscape-font-specification:'Roboto Slab, Normal';text-align:start;text-anchor:start;fill:#4477ed;stroke:#4477ed;stroke-width:0.264582"
         d="m 46.810453,153.18282 v 0.80925 h 0.63562 v 0.45269 h -0.63562 v 2.03708 q 0,0.23564 0.09612,0.33176 0.09922,0.0961 0.260449,0.0961 0.08062,0 0.179834,-0.0124 0.10232,-0.0155 0.170533,-0.031 l 0.08371,0.41858 q -0.08682,0.0558 -0.254248,0.0899 -0.167431,0.0372 -0.334863,0.0372 -0.37207,0 -0.592212,-0.22325 -0.220141,-0.22634 -0.220141,-0.70693 v -2.03708 h -0.530201 v -0.45269 h 0.530201 v -0.80925 z m 3.447852,4.16408 q -0.02791,-0.13642 -0.04341,-0.24494 -0.0155,-0.10852 -0.0217,-0.21704 -0.176733,0.22634 -0.443384,0.37827 -0.263549,0.14883 -0.564306,0.14883 -0.523999,0 -0.796851,-0.25425 -0.272851,-0.25735 -0.272851,-0.72244 0,-0.47749 0.384472,-0.73484 0.387574,-0.26045 1.060401,-0.26045 h 0.629419 v -0.39067 q 0,-0.29456 -0.186035,-0.46509 -0.186036,-0.17363 -0.517798,-0.17363 -0.229444,0 -0.406177,0.0589 -0.173633,0.0589 -0.282153,0.16123 l -0.06511,0.35347 h -0.471289 v -0.65113 q 0.229444,-0.18293 0.555005,-0.29145 0.325562,-0.11162 0.706934,-0.11162 0.570508,0 0.923974,0.29145 0.353467,0.29146 0.353467,0.83406 v 1.61541 q 0,0.0651 0,0.12712 0.0031,0.062 0.0093,0.12402 l 0.248047,0.0341 v 0.39067 z m -0.982886,-0.44648 q 0.303857,0 0.555005,-0.14573 0.251147,-0.14573 0.359668,-0.35036 v -0.55191 h -0.651123 q -0.375171,0 -0.595313,0.17363 -0.217041,0.17364 -0.217041,0.42168 0,0.22015 0.136426,0.33797 0.136426,0.11472 0.412378,0.11472 z m 2.294433,-1.16892 q 0,-0.80925 0.353467,-1.30535 0.353467,-0.49609 0.976685,-0.49609 0.316259,0 0.555005,0.12402 0.238745,0.12402 0.399975,0.35967 l 0.05581,-0.42168 h 0.514697 v 3.31143 q 0,0.65112 -0.362769,1.02319 -0.362768,0.37517 -1.032495,0.37517 -0.241845,0 -0.523999,-0.0682 -0.282153,-0.0651 -0.496093,-0.17984 l 0.158129,-0.47439 q 0.170533,0.0899 0.403077,0.14883 0.232544,0.0589 0.452685,0.0589 0.409277,0 0.598413,-0.22944 0.192237,-0.22944 0.192237,-0.65422 v -0.31936 q -0.164332,0.21083 -0.393775,0.31936 -0.229443,0.10852 -0.527099,0.10852 -0.617017,0 -0.970484,-0.44649 -0.353467,-0.44648 -0.353467,-1.16892 z m 0.610816,0.0651 q 0,0.5054 0.21394,0.81235 0.213941,0.30696 0.651123,0.30696 0.275952,0 0.461988,-0.12402 0.186035,-0.12713 0.306958,-0.35657 v -1.54409 q -0.117823,-0.21394 -0.306958,-0.33796 -0.189136,-0.12713 -0.455787,-0.12713 -0.437182,0 -0.654223,0.36587 -0.217041,0.36587 -0.217041,0.93948 z"
         id="path3" />
    </g>
    <g
       id="g8"
       transform="translate(1.1913535)">
      <path
         d="m 111.96754,151.14572 q -0.15813,0.26975 -0.40928,0.41548 -0.24804,0.14573 -0.57361,0.14573 -0.5457,0 -0.85266,-0.35037 -0.30695,-0.35036 -0.30695,-1.0914 v -1.49759 l -0.38448,-0.0868 v -0.39378 h 0.38448 0.61081 v 1.98438 q 0,0.5364 0.15813,0.73794 0.15813,0.20153 0.49299,0.20153 0.32557,0 0.53641,-0.13022 0.21394,-0.13332 0.32246,-0.37517 v -1.93787 l -0.44959,-0.0868 V 148.287 h 0.44959 0.61081 v 2.87735 l 0.38447,0.0868 v 0.39068 h -0.93327 z m 1.36736,0.10542 0.50539,-0.0868 v -2.39676 l -0.50539,-0.0868 V 148.287 h 1.0511 l 0.0434,0.4992 q 0.16743,-0.26665 0.41857,-0.41238 0.25425,-0.14883 0.57671,-0.14883 0.54261,0 0.84026,0.31936 0.29766,0.31626 0.29766,0.97979 v 1.64021 l 0.50539,0.0868 v 0.39068 h -1.6216 v -0.39068 l 0.50539,-0.0868 v -1.62781 q 0,-0.44339 -0.17673,-0.62942 -0.17363,-0.18604 -0.5333,-0.18604 -0.26355,0 -0.46819,0.12713 -0.20154,0.12712 -0.32246,0.34726 v 1.96888 l 0.50539,0.0868 v 0.39068 h -1.6216 z m 4.17649,0 0.50539,-0.0868 v -2.39676 l -0.50539,-0.0868 V 148.287 h 1.11621 v 2.87735 l 0.50539,0.0868 v 0.39068 h -1.6216 z m 1.11621,-3.82302 h -0.61082 v -0.62322 h 0.61082 z m 0.97358,2.59829 q 0,-0.80925 0.34417,-1.30535 0.34726,-0.49609 0.96738,-0.49609 0.29456,0 0.524,0.11162 0.22944,0.10852 0.39067,0.31936 l 0.0496,-0.36897 h 0.5271 v 4.16409 l 0.5054,0.0868 v 0.39377 h -1.62161 v -0.39377 l 0.5054,-0.0868 v -1.12551 q -0.16123,0.18913 -0.38448,0.28525 -0.22014,0.0961 -0.50229,0.0961 -0.61392,0 -0.96118,-0.44339 -0.34417,-0.44648 -0.34417,-1.17202 z m 0.61082,0.0651 q 0,0.5085 0.20774,0.82476 0.20774,0.31316 0.64182,0.31316 0.25425,0 0.43098,-0.11162 0.17983,-0.11162 0.30076,-0.31626 v -1.68362 q -0.12093,-0.18914 -0.30076,-0.30076 -0.17983,-0.11162 -0.42478,-0.11162 -0.43718,0 -0.64802,0.37207 -0.20774,0.36897 -0.20774,0.94878 z m 5.36711,1.0542 q -0.15813,0.26975 -0.40927,0.41548 -0.24805,0.14573 -0.57361,0.14573 -0.54571,0 -0.85266,-0.35037 -0.30696,-0.35036 -0.30696,-1.0914 v -1.49759 l -0.38448,-0.0868 v -0.39378 h 0.38448 0.61081 v 1.98438 q 0,0.5364 0.15813,0.73794 0.15813,0.20153 0.493,0.20153 0.32556,0 0.5364,-0.13022 0.21394,-0.13332 0.32246,-0.37517 v -1.93787 l -0.44959,-0.0868 v -0.39378 h 0.44959 0.61081 v 2.87735 l 0.38448,0.0868 v 0.39068 h -0.93328 z m 2.98897,0.56121 q -0.70074,0 -1.11621,-0.46509 -0.41238,-0.46819 -0.41238,-1.21233 v -0.13642 q 0,-0.71624 0.42478,-1.19063 0.42788,-0.47749 1.01079,-0.47749 0.67593,0 1.02319,0.40928 0.35037,0.40928 0.35037,1.0914 v 0.38138 h -2.17661 l -0.009,0.0155 q 0.009,0.48369 0.24494,0.79685 0.23565,0.31006 0.66043,0.31006 0.31006,0 0.5426,-0.0868 0.23564,-0.0899 0.40618,-0.24494 l 0.23874,0.39687 q -0.17983,0.17363 -0.47749,0.29456 -0.29456,0.11782 -0.71003,0.11782 z m -0.093,-3.00137 q -0.30696,0 -0.524,0.26045 -0.21704,0.25735 -0.26665,0.64802 l 0.006,0.0155 h 1.54719 v -0.0806 q 0,-0.35967 -0.19223,-0.60151 -0.19224,-0.24185 -0.57051,-0.24185 z"
         id="path4"
         style="font-size:6.35px;line-height:1;font-family:'Roboto Slab';-inkscape-font-specification:'Roboto Slab, Normal';text-align:center;text-anchor:middle;fill:#8843a2;stroke:#8843a2;stroke-width:0.264582" />
      <path
         d="m 103.96183,157.60114 0.50539,-0.0868 v -2.39676 l -0.50539,-0.0868 V 154.637 h 1.0511 l 0.0434,0.4992 q 0.16744,-0.26665 0.41858,-0.41238 0.25425,-0.14883 0.57671,-0.14883 0.5426,0 0.84026,0.31936 0.29766,0.31626 0.29766,0.97979 v 1.64021 l 0.50539,0.0868 v 0.39068 h -1.6216 v -0.39068 l 0.50539,-0.0868 v -1.62781 q 0,-0.44339 -0.17673,-0.62942 -0.17363,-0.18604 -0.5333,-0.18604 -0.26355,0 -0.46819,0.12713 -0.20154,0.12712 -0.32246,0.34726 v 1.96888 l 0.50539,0.0868 v 0.39068 h -1.6216 z m 6.57634,-0.10542 q -0.15813,0.26975 -0.40928,0.41548 -0.24804,0.14573 -0.57361,0.14573 -0.5457,0 -0.85266,-0.35037 -0.30695,-0.35036 -0.30695,-1.0914 v -1.49759 l -0.38448,-0.0868 v -0.39378 h 0.38448 0.61081 v 1.98438 q 0,0.5364 0.15813,0.73794 0.15813,0.20153 0.49299,0.20153 0.32557,0 0.5364,-0.13022 0.21395,-0.13332 0.32247,-0.37517 v -1.93787 l -0.44959,-0.0868 V 154.637 h 0.44959 0.61081 v 2.87735 l 0.38447,0.0868 v 0.39068 h -0.93327 z m 1.33635,0.10542 0.5054,-0.0868 v -2.39676 l -0.5054,-0.0868 V 154.637 h 1.0542 l 0.0403,0.43719 q 0.16123,-0.23875 0.41548,-0.36897 0.25425,-0.13023 0.58911,-0.13023 0.33486,0 0.57361,0.15503 0.24184,0.15503 0.36277,0.46509 0.15813,-0.28526 0.41857,-0.45269 0.26045,-0.16743 0.60772,-0.16743 0.5147,0 0.81235,0.35347 0.29766,0.35036 0.29766,1.0573 v 1.52859 l 0.5054,0.0868 v 0.39068 h -1.62471 v -0.39068 l 0.50539,-0.0868 v -1.53479 q 0,-0.4961 -0.17053,-0.70074 -0.17053,-0.20774 -0.50539,-0.20774 -0.31936,0 -0.5147,0.22635 -0.19224,0.22324 -0.22324,0.5643 v 1.65262 l 0.50539,0.0868 v 0.39068 h -1.6216 v -0.39068 l 0.50539,-0.0868 v -1.53479 q 0,-0.47129 -0.17673,-0.68833 -0.17364,-0.22015 -0.5054,-0.22015 -0.27905,0 -0.45888,0.11473 -0.17984,0.11472 -0.27596,0.32246 v 2.00608 l 0.5054,0.0868 v 0.39068 h -1.62161 z m 7.62124,0.45579 q -0.70073,0 -1.11621,-0.46509 -0.41238,-0.46819 -0.41238,-1.21233 v -0.13642 q 0,-0.71624 0.42478,-1.19063 0.42788,-0.47749 1.01079,-0.47749 0.67593,0 1.0232,0.40928 0.35036,0.40928 0.35036,1.0914 v 0.38138 h -2.17661 l -0.009,0.0155 q 0.009,0.48369 0.24495,0.79685 0.23564,0.31006 0.66042,0.31006 0.31006,0 0.54261,-0.0868 0.23564,-0.0899 0.40617,-0.24494 l 0.23875,0.39687 q -0.17984,0.17363 -0.47749,0.29456 -0.29456,0.11782 -0.71004,0.11782 z m -0.093,-3.00137 q -0.30695,0 -0.52399,0.26045 -0.21705,0.25735 -0.26665,0.64802 l 0.006,0.0155 h 1.54719 v -0.0806 q 0,-0.35967 -0.19224,-0.60151 -0.19223,-0.24185 -0.57051,-0.24185 z m 1.97508,-0.0248 v -0.39378 h 1.0511 l 0.0589,0.48679 q 0.14263,-0.25734 0.35036,-0.40307 0.21084,-0.14573 0.4806,-0.14573 0.0713,0 0.14572,0.0124 0.0775,0.009 0.11783,0.0217 l -0.0806,0.5674 -0.34727,-0.0186 q -0.24184,0 -0.40617,0.11472 -0.16433,0.11162 -0.25425,0.31626 v 1.92547 l 0.5054,0.0868 v 0.39068 h -1.62161 v -0.39068 l 0.50539,-0.0868 v -2.39676 z m 2.62619,2.57038 0.5054,-0.0868 v -2.39676 l -0.5054,-0.0868 V 154.637 h 1.11622 v 2.87735 l 0.50539,0.0868 v 0.39068 h -1.62161 z m 1.11622,-3.82302 h -0.61082 v -0.62322 h 0.61082 z m 2.47736,3.80132 q 0.30386,0 0.53331,-0.18604 0.23254,-0.18913 0.23254,-0.46198 h 0.5488 l 0.006,0.0186 q 0.0155,0.43408 -0.38757,0.77205 -0.39997,0.33486 -0.93328,0.33486 -0.73173,0 -1.11931,-0.47749 -0.38447,-0.47749 -0.38447,-1.19993 v -0.13022 q 0,-0.71624 0.38757,-1.19373 0.38758,-0.48059 1.11621,-0.48059 0.40308,0 0.72244,0.13333 0.32246,0.13332 0.5333,0.36587 l 0.0279,0.74414 h -0.4868 l -0.13332,-0.5271 q -0.10852,-0.10542 -0.27905,-0.17054 -0.17054,-0.0651 -0.38448,-0.0651 -0.48059,0 -0.68833,0.34727 -0.20463,0.34416 -0.20463,0.84646 v 0.13022 q 0,0.5147 0.20463,0.85886 0.20464,0.34107 0.68833,0.34107 z m 3.43545,-3.7083 v -0.39378 h 1.62161 v 0.39378 l -0.5054,0.0868 v 3.55638 l 0.5054,0.0868 v 0.39068 h -1.62161 v -0.39068 l 0.5054,-0.0868 v -3.55638 z m 3.94705,-0.39378 q 0.88366,0 1.42007,0.54571 0.5395,0.5426 0.5395,1.40456 v 0.61702 q 0,0.86506 -0.5395,1.40766 -0.53641,0.53951 -1.42007,0.53951 h -1.89136 v -0.39068 l 0.5054,-0.0868 v -3.55638 l -0.5054,-0.0868 v -0.3938 h 0.5054 z m -0.77515,0.48059 v 3.55638 h 0.77515 q 0.62632,0 0.98598,-0.41238 0.36277,-0.41238 0.36277,-1.0573 v -0.62322 q 0,-0.63872 -0.36277,-1.0511 -0.35966,-0.41238 -0.98598,-0.41238 z"
         id="path5"
         style="font-size:6.35px;line-height:1;font-family:'Roboto Slab';-inkscape-font-specification:'Roboto Slab, Normal';text-align:center;text-anchor:middle;fill:#8843a2;stroke:#8843a2;stroke-width:0.264582" />
    </g>
    <g
       id="g10">
      <path
         style="font-size:6.35px;line-height:1;font-family:'Roboto Slab';-inkscape-font-specification:'Roboto Slab, Normal';text-align:end;text-anchor:end;fill:#17a8c1;stroke:#17a8c1;stroke-width:0.264582"
         d="m 152.51048,148.03584 -0.40308,0.062 0.69143,1.90996 0.0558,0.24184 h 0.0186 l 0.0589,-0.24184 0.66972,-1.90996 -0.40617,-0.062 v -0.39377 h 1.29604 v 0.39377 l -0.27595,0.0465 -1.12551,2.91455 h -0.46199 l -1.13792,-2.91455 -0.27595,-0.0465 v -0.39377 h 1.29605 z m 3.88503,3.02618 q -0.70073,0 -1.11621,-0.46509 -0.41238,-0.46819 -0.41238,-1.21233 v -0.13643 q 0,-0.71623 0.42478,-1.19062 0.42788,-0.47749 1.01079,-0.47749 0.67593,0 1.0232,0.40928 0.35036,0.40927 0.35036,1.0914 v 0.38137 h -2.17661 l -0.009,0.0155 q 0.009,0.48369 0.24495,0.79685 0.23564,0.31006 0.66042,0.31006 0.31006,0 0.5426,-0.0868 0.23565,-0.0899 0.40618,-0.24495 l 0.23874,0.39688 q -0.17983,0.17363 -0.47749,0.29455 -0.29455,0.11783 -0.71003,0.11783 z m -0.093,-3.00137 q -0.30696,0 -0.524,0.26045 -0.21704,0.25735 -0.26665,0.64802 l 0.006,0.0155 h 1.5472 v -0.0806 q 0,-0.35967 -0.19224,-0.60152 -0.19224,-0.24184 -0.57051,-0.24184 z m 1.97508,-0.0248 v -0.39377 h 1.05109 l 0.0589,0.48679 q 0.14262,-0.25735 0.35036,-0.40307 0.21084,-0.14573 0.48059,-0.14573 0.0713,0 0.14573,0.0124 0.0775,0.009 0.11782,0.0217 l -0.0806,0.56741 -0.34727,-0.0186 q -0.24184,0 -0.40618,0.11472 -0.16433,0.11162 -0.25424,0.31626 v 1.92546 l 0.50539,0.0868 v 0.39067 h -1.6216 v -0.39067 l 0.50539,-0.0868 v -2.39675 z m 5.19348,0.66043 h -0.45889 l -0.0992,-0.40308 q -0.11162,-0.10542 -0.28215,-0.16743 -0.16743,-0.0651 -0.38137,-0.0651 -0.32556,0 -0.48369,0.14263 -0.15813,0.14262 -0.15813,0.34416 0,0.19844 0.13952,0.31316 0.13953,0.11472 0.56741,0.20464 0.63562,0.13642 0.94568,0.37207 0.31006,0.23254 0.31006,0.62632 0,0.44648 -0.36277,0.72243 -0.35967,0.27596 -0.94258,0.27596 -0.38137,0 -0.68523,-0.0868 -0.30386,-0.0899 -0.5426,-0.25735 l -0.003,-0.76584 h 0.45888 l 0.11473,0.44958 q 0.10542,0.0961 0.28525,0.13953 0.18293,0.0434 0.37207,0.0434 0.32556,0 0.5085,-0.13023 0.18603,-0.13332 0.18603,-0.34726 0,-0.20154 -0.15503,-0.33177 -0.15193,-0.13022 -0.57981,-0.22634 -0.61081,-0.13333 -0.92087,-0.36277 -0.31006,-0.22944 -0.31006,-0.62012 0,-0.40927 0.34727,-0.69763 0.35036,-0.28835 0.90847,-0.28835 0.38137,0 0.68523,0.0992 0.30385,0.0992 0.50539,0.27595 z m 0.66972,1.90996 0.5054,-0.0868 v -2.39675 l -0.5054,-0.0868 v -0.39377 h 1.11621 v 2.87734 l 0.5054,0.0868 v 0.39067 h -1.62161 z m 1.11621,-3.82302 h -0.61081 V 146.16 h 0.61081 z m 0.97359,2.50527 q 0,-0.74414 0.40307,-1.22473 0.40308,-0.48369 1.09451,-0.48369 0.69453,0 1.09761,0.48059 0.40618,0.48059 0.40618,1.22783 v 0.0682 q 0,0.75035 -0.40308,1.22784 -0.40308,0.47749 -1.09451,0.47749 -0.69763,0 -1.10071,-0.47749 -0.40307,-0.4806 -0.40307,-1.22784 z m 0.61081,0.0682 q 0,0.5333 0.22325,0.88057 0.22634,0.34727 0.66972,0.34727 0.43408,0 0.66043,-0.34727 0.22634,-0.34727 0.22634,-0.88057 v -0.0682 q 0,-0.5271 -0.22634,-0.87746 -0.22635,-0.35037 -0.66663,-0.35037 -0.44028,0 -0.66352,0.35037 -0.22325,0.35036 -0.22325,0.87746 z m 2.85874,1.24954 0.5054,-0.0868 v -2.39675 l -0.5054,-0.0868 v -0.39377 h 1.0511 l 0.0434,0.49919 q 0.16743,-0.26665 0.41858,-0.41237 0.25425,-0.14883 0.57671,-0.14883 0.5426,0 0.84026,0.31936 0.29765,0.31626 0.29765,0.97978 v 1.64021 l 0.5054,0.0868 v 0.39067 h -1.62161 v -0.39067 l 0.5054,-0.0868 v -1.6278 q 0,-0.44339 -0.17674,-0.62942 -0.17363,-0.18604 -0.5333,-0.18604 -0.26355,0 -0.46818,0.12713 -0.20154,0.12712 -0.32247,0.34726 v 1.96887 l 0.5054,0.0868 v 0.39067 h -1.62161 z"
         id="path6" />
      <path
         style="font-size:6.35px;line-height:1;font-family:'Roboto Slab';-inkscape-font-specification:'Roboto Slab, Normal';text-align:end;text-anchor:end;fill:#17a8c1;stroke:#17a8c1;stroke-width:0.264582"
         d="m 165.81822,153.18282 v 0.80925 h 0.63562 v 0.45269 h -0.63562 v 2.03708 q 0,0.23564 0.0961,0.33176 0.0992,0.0961 0.26045,0.0961 0.0806,0 0.17984,-0.0124 0.10232,-0.0155 0.17053,-0.031 l 0.0837,0.41858 q -0.0868,0.0558 -0.25424,0.0899 -0.16743,0.0372 -0.33487,0.0372 -0.37207,0 -0.59221,-0.22325 -0.22014,-0.22634 -0.22014,-0.70693 v -2.03708 h -0.5302 v -0.45269 h 0.5302 v -0.80925 z m 3.44785,4.16408 q -0.0279,-0.13642 -0.0434,-0.24494 -0.0155,-0.10852 -0.0217,-0.21704 -0.17673,0.22634 -0.44338,0.37827 -0.26355,0.14883 -0.56431,0.14883 -0.52399,0 -0.79685,-0.25425 -0.27285,-0.25735 -0.27285,-0.72244 0,-0.47749 0.38447,-0.73484 0.38758,-0.26045 1.06041,-0.26045 h 0.62941 v -0.39067 q 0,-0.29456 -0.18603,-0.46509 -0.18604,-0.17363 -0.5178,-0.17363 -0.22944,0 -0.40618,0.0589 -0.17363,0.0589 -0.28215,0.16123 l -0.0651,0.35347 h -0.47129 v -0.65113 q 0.22944,-0.18293 0.555,-0.29145 0.32557,-0.11162 0.70694,-0.11162 0.57051,0 0.92397,0.29145 0.35347,0.29146 0.35347,0.83406 v 1.61541 q 0,0.0651 0,0.12712 0.003,0.062 0.009,0.12402 l 0.24805,0.0341 v 0.39067 z m -0.98289,-0.44648 q 0.30386,0 0.55501,-0.14573 0.25114,-0.14573 0.35966,-0.35036 v -0.55191 h -0.65112 q -0.37517,0 -0.59531,0.17363 -0.21704,0.17364 -0.21704,0.42168 0,0.22015 0.13642,0.33797 0.13643,0.11472 0.41238,0.11472 z m 2.29443,-1.16892 q 0,-0.80925 0.35347,-1.30535 0.35347,-0.49609 0.97669,-0.49609 0.31626,0 0.555,0.12402 0.23875,0.12402 0.39998,0.35967 l 0.0558,-0.42168 h 0.51469 v 3.31143 q 0,0.65112 -0.36276,1.02319 -0.36277,0.37517 -1.0325,0.37517 -0.24184,0 -0.524,-0.0682 -0.28215,-0.0651 -0.49609,-0.17984 l 0.15813,-0.47439 q 0.17053,0.0899 0.40307,0.14883 0.23255,0.0589 0.45269,0.0589 0.40928,0 0.59841,-0.22944 0.19224,-0.22944 0.19224,-0.65422 v -0.31936 q -0.16433,0.21083 -0.39378,0.31936 -0.22944,0.10852 -0.5271,0.10852 -0.61701,0 -0.97048,-0.44649 -0.35347,-0.44648 -0.35347,-1.16892 z m 0.61082,0.0651 q 0,0.5054 0.21394,0.81235 0.21394,0.30696 0.65112,0.30696 0.27596,0 0.46199,-0.12402 0.18604,-0.12713 0.30696,-0.35657 v -1.54409 q -0.11782,-0.21394 -0.30696,-0.33796 -0.18913,-0.12713 -0.45579,-0.12713 -0.43718,0 -0.65422,0.36587 -0.21704,0.36587 -0.21704,0.93948 z"
         id="path7" />
    </g>
    <g
       id="g5">
      <path
         style="fill:#000000;stroke:#4477ed;stroke-width:1;stroke-linecap:square;stroke-linejoin:miter;stroke-miterlimit:0;stroke-dasharray:none;stroke-opacity:1;paint-order:normal"
         d="M 46.534786,139.82684 H 84.933709"
         id="path8"
         sodipodi:nodetypes="cc" />
      <path
         style="fill:#000000;stroke:#8843a2;stroke-width:1;stroke-linecap:square;stroke-linejoin:miter;stroke-miterlimit:0;stroke-dasharray:none;stroke-opacity:1;paint-order:normal"
         d="M 87.442337,139.818 H 155.84188"
         id="path8-1"
         sodipodi:nodetypes="cc" />
      <path
         style="fill:#000000;stroke:#17a8c1;stroke-width:1;stroke-linecap:square;stroke-linejoin:miter;stroke-miterlimit:0;stroke-dasharray:none;stroke-opacity:1;paint-order:normal"
         d="m 165.82253,139.81457 h 7.24301"
         id="path8-3"
         sodipodi:nodetypes="cc" />
      <text
         xml:space="preserve"
         transform="matrix(0.19843749,0,0,0.19843749,118.09648,115.13891)"
         id="text2-3"
         style="font-size:96px;font-family:'Liberation Serif';-inkscape-font-specification:'Liberation Serif, Normal';text-align:start;writing-mode:lr-tb;direction:ltr;white-space:pre;shape-inside:url(#rect2-7);display:inline;fill:#000000;stroke:#000000;stroke-width:3.77953"><tspan
           x="-372.19141"
           y="108.70973"
           id="tspan6"><tspan
             style="font-family:'DejaVu Math TeX Gyre';-inkscape-font-specification:'DejaVu Math TeX Gyre, Normal'"
             id="tspan5">SSB000420.1</tspan></tspan></text>
    </g>
    <g
       id="g1"
       transform="translate(0,10.583333)">
      <text
         xml:space="preserve"
         transform="matrix(0.19843749,0,0,0.19843749,118.62564,83.388902)"
         id="text2"
         style="font-size:96px;font-family:'Liberation Serif';-inkscape-font-specification:'Liberation Serif, Normal';text-align:start;writing-mode:lr-tb;direction:ltr;white-space:pre;shape-inside:url(#rect2);display:inline;fill:#000000;stroke:#000000;stroke-width:3.77953"><tspan
           x="-372.19141"
           y="108.70973"
           id="tspan8"><tspan
             style="font-family:'DejaVu Math TeX Gyre';-inkscape-font-specification:'DejaVu Math TeX Gyre, Normal'"
             id="tspan7">SSA003370.1</tspan></tspan></text>
      <path
         style="fill:#000000;stroke:#4477ed;stroke-width:1;stroke-linecap:square;stroke-linejoin:miter;stroke-miterlimit:0;stroke-dasharray:none;stroke-opacity:1;paint-order:normal"
         d="M 46.005621,108.07682 H 84.404544"
         id="path8-6"
         sodipodi:nodetypes="cc" />
      <path
         style="fill:#000000;stroke:#8843a2;stroke-width:1;stroke-linecap:square;stroke-linejoin:miter;stroke-miterlimit:0;stroke-dasharray:none;stroke-opacity:1;paint-order:normal"
         d="M 86.913172,108.06798 H 155.31273"
         id="path8-1-0"
         sodipodi:nodetypes="cc" />
      <path
         style="fill:#000000;stroke:#17a8c1;stroke-width:1;stroke-linecap:square;stroke-linejoin:miter;stroke-miterlimit:0;stroke-dasharray:none;stroke-opacity:1;paint-order:normal"
         d="m 165.29338,108.06455 h 7.24301"
         id="path8-3-6"
         sodipodi:nodetypes="cc" />
    </g>
    <text
       xml:space="preserve"
       style="font-style:normal;font-variant:normal;font-weight:normal;font-stretch:normal;font-size:12.7px;font-family:'Liberation Serif';-inkscape-font-specification:'Liberation Serif, Normal';font-variant-ligatures:normal;font-variant-caps:normal;font-variant-numeric:normal;font-variant-east-asian:normal;text-align:end;writing-mode:lr-tb;direction:ltr;text-anchor:end;white-space:pre;inline-size:88.9;display:inline;fill:#000000;fill-opacity:1;stroke:none;stroke-width:0.5;stroke-linejoin:bevel;stroke-miterlimit:0;stroke-dasharray:none;stroke-opacity:1;paint-order:fill markers stroke"
       x="-5.0186844"
       y="109.21101"
       id="text1"
       transform="translate(46.240373,3.9402636)"><tspan
         x="-5.0186844"
         y="109.21101"
         id="tspan9">Individual ship</tspan></text>
    <text
       xml:space="preserve"
       style="font-style:normal;font-variant:normal;font-weight:normal;font-stretch:normal;font-size:12.7px;line-height:13.2292px;font-family:'Liberation Serif';-inkscape-font-specification:'Liberation Serif, Normal';font-variant-ligatures:normal;font-variant-caps:normal;font-variant-numeric:normal;font-variant-east-asian:normal;text-align:end;letter-spacing:0px;writing-mode:lr-tb;direction:ltr;text-anchor:end;white-space:pre;inline-size:88.9;display:inline;fill:#000000;fill-opacity:1;stroke:none;stroke-width:0.5;stroke-linejoin:bevel;stroke-miterlimit:0;stroke-dasharray:none;stroke-opacity:1;paint-order:fill markers stroke"
       x="-5.0186844"
       y="109.21101"
       id="text1-9"
       transform="translate(46.240376,18.557455)"><tspan
         x="-5.0186844"
         y="109.21101"
         id="tspan10">Classification<tspan
   y="109.21101"
   id="tspan11"> </tspan></tspan><tspan
         x="-5.0186844"
         y="122.44022"
         id="tspan12">Group</tspan></text>
  </g>
</svg>
