<?xml version="1.0" encoding="UTF-8" standalone="no"?>
<!-- Created with Inkscape (http://www.inkscape.org/) -->

<svg
   version="1.1"
   id="svg1"
   width="126.44276"
   height="116.43341"
   viewBox="0 0 126.44276 116.43341"
   sodipodi:docname="emblem.svg"
   xml:space="preserve"
   inkscape:version="1.4 (e7c3feb100, 2024-10-09)"
   xmlns:inkscape="http://www.inkscape.org/namespaces/inkscape"
   xmlns:sodipodi="http://sodipodi.sourceforge.net/DTD/sodipodi-0.dtd"
   xmlns="http://www.w3.org/2000/svg"
   xmlns:svg="http://www.w3.org/2000/svg"><defs
     id="defs1" /><sodipodi:namedview
     id="namedview1"
     pagecolor="#505050"
     bordercolor="#eeeeee"
     borderopacity="1"
     inkscape:showpageshadow="0"
     inkscape:pageopacity="0"
     inkscape:pagecheckerboard="0"
     inkscape:deskcolor="#d1d1d1"
     inkscape:zoom="6.109375"
     inkscape:cx="63.181586"
     inkscape:cy="36.828645"
     inkscape:window-width="2560"
     inkscape:window-height="1371"
     inkscape:window-x="0"
     inkscape:window-y="32"
     inkscape:window-maximized="1"
     inkscape:current-layer="g1"
     showguides="false" /><g
     inkscape:groupmode="layer"
     inkscape:label="Image"
     id="g1"
     transform="translate(-19.738617,-59.31918)"><g
       id="g24"
       transform="matrix(0.44857195,0,0,0.44857195,93.3998,58.800926)"><path
         fill="#fcea2b"
         d="m 17.359951,127.30329 c 0.0035,4.47019 2.056479,8.63512 5.45745,11.07188 3.397153,-2.44072 5.446632,-6.60572 5.448965,-11.07329 -0.0035,-4.47019 -2.056479,-8.63512 -5.45745,-11.07188 -3.397153,2.44072 -5.446631,6.60572 -5.448965,11.07329 z"
         id="path1-0" /><path
         fill="#61b2e4"
         d="m 26.961047,114.48486 c 0.547371,0.81876 0.839972,1.78141 0.840821,2.76641 -0.0011,0.47815 -0.07106,0.95368 -0.207607,1.41195 3.630428,0.57205 7.101191,1.78672 10.214723,3.57471 0.06194,-0.94102 0.0792,-1.88741 0.05176,-2.83564 -0.08535,-2.79158 -0.557553,-5.57674 -1.400778,-8.26198 -0.826891,-2.59564 -1.991991,-5.06804 -3.458601,-7.33948 -1.254478,4.01842 -3.319725,7.6714 -6.040318,10.68417 z"
         id="path2-7" /><path
         fill="#92d3f5"
         d="m 7.770169,119.40632 c -0.028284,0.94753 -0.01195,1.89328 0.048932,2.83366 3.110916,-1.79386 6.580053,-3.01482 10.209773,-3.59351 -0.132653,-0.45284 -0.200465,-0.92228 -0.201242,-1.39414 9.9e-4,-0.98174 0.291752,-1.94143 0.835729,-2.75877 -2.715361,-3.0132 -4.775446,-6.6654 -6.025257,-10.68227 -0.0015,-0.004 -0.0023,-0.008 -0.004,-0.0119 -1.468165,2.27242 -2.6346791,4.74581 -3.4627718,7.34252 -0.8435784,2.6863 -1.3159257,5.47216 -1.4012028,8.26438 z"
         id="path3" /><path
         fill="#ea5a47"
         d="m 11.232164,94.728296 c 0.01365,7.411964 2.684884,14.516904 7.431833,19.767734 0.923341,-1.39257 2.48244,-2.23057 4.153121,-2.23205 1.677823,5.6e-4 3.242721,0.84478 4.164294,2.24662 4.747868,-5.25826 7.417196,-12.37034 7.426177,-19.786123 -0.0079,-9.499696 -4.37183,-18.35034 -11.600299,-23.527351 -1.424467,1.024668 -2.752272,2.203698 -3.963758,3.519553 -4.865955,5.279754 -7.607691,12.487859 -7.61151,20.01091 z m 6.873007,-7.621268 c -7.1e-5,-2.603921 2.110784,-4.715483 4.714776,-4.71619 5.66e-4,0 0.0011,0 0.0016,-1.41e-4 2.603921,-7.78e-4 4.714918,2.10937 4.714918,4.71322 0,5.66e-4 0,0.0011 -1.42e-4,0.0016 -0.0011,2.603779 -2.112552,4.714422 -4.716048,4.714634 -2.60378,7.78e-4 -4.714705,-2.109158 -4.714918,-4.712937 z"
         id="path4" /><path
         fill="#f1b31c"
         d="m 27.500569,122.71063 c 0.07601,1.3143 -0.03019,2.64182 -0.315016,3.93781 -0.89654,4.04005 -3.457681,7.46627 -6.921161,9.25886 0.74027,0.95169 1.599688,1.78254 2.552373,2.46752 3.397153,-2.44073 5.446702,-6.60565 5.449035,-11.07323 -0.0059,-1.56829 -0.264952,-3.12293 -0.765018,-4.59117 z"
         id="path5" /><path
         fill="#92d3f5"
         stroke="none"
         stroke-miterlimit="10"
         stroke-width="4.46006"
         d="m 27.336785,87.204478 c 0,0.691312 -0.156103,1.360324 -0.446006,1.962433 -0.0446,0.1115 -0.0892,0.200703 -0.156103,0.312204 -0.780513,1.360321 -2.274636,2.296936 -3.94716,2.296936 -0.401407,0 -0.780512,-0.0446 -1.137318,-0.178403 -1.181919,-0.289905 -2.207734,-1.070416 -2.787542,-2.118533 -0.423706,-0.669009 -0.64671,-1.449524 -0.64671,-2.274637 0,-1.226519 0.490607,-2.363836 1.33802,-3.166648 0.535209,-0.602109 1.27112,-1.025816 2.096232,-1.226518 0.356806,-0.111499 0.735911,-0.156103 1.137318,-0.156103 2.497638,0 4.549269,2.051631 4.549269,4.549269 z"
         id="path38-6" /><path
         fill="#d22f27"
         d="m 17.82452,113.50693 c 0.279378,0.32605 0.565615,0.64467 0.858852,0.95558 0.927088,-1.37397 2.476076,-2.1979 4.133393,-2.19846 1.677823,5.6e-4 3.242721,0.84478 4.164293,2.24662 4.746949,-5.25861 7.415358,-12.37048 7.423773,-19.785698 -0.0095,-2.121249 -0.237093,-4.234509 -0.678328,-6.29926 -0.08521,1.820022 -0.332835,3.634175 -0.739351,5.41672 -2.012779,8.674998 -7.638167,15.970428 -15.163056,19.664778 z"
         id="path6" /><path
         fill="#61b2e4"
         d="m 23.268535,122.01272 c 0.306248,-0.92454 0.567666,-1.86563 0.786374,-2.82001 0.644174,-2.81118 0.900147,-5.71498 0.759574,-8.61582 l -1.41e-4,-0.004 c -0.149059,-2.8082 -0.667651,-5.58133 -1.540998,-8.23433 -0.042,-0.12827 -0.109814,-0.24657 -0.199404,-0.34747 -2.935766,1.87044 -3.249156,17.74626 0.194454,20.02159 z"
         id="path7" /><path
         d="m 27.019737,91.305192 c -2.316553,2.316552 -6.084725,2.317118 -8.40057,0.0013 -2.315846,-2.315846 -2.31528,-6.084018 0.0013,-8.40057 2.316552,-2.316553 6.084724,-2.317119 8.40057,-0.0013 2.315845,2.315845 2.315279,6.084017 -0.0013,8.40057 z m -6.999438,-6.999438 c -1.544251,1.54425 -1.545028,4.056247 -8.49e-4,5.600427 1.54411,1.544109 4.056177,1.543402 5.600428,-8.48e-4 1.544179,-1.54418 1.544957,-4.056319 8.48e-4,-5.600428 -1.54418,-1.544179 -4.056247,-1.543331 -5.600427,8.49e-4 z"
         id="path8-8" /><path
         fill="none"
         stroke="#000000"
         stroke-linecap="round"
         stroke-linejoin="round"
         stroke-miterlimit="10"
         stroke-width="1.949"
         d="m 18.407883,121.94059 c -0.685681,1.68737 -1.04277,3.51411 -1.048144,5.36263 0.0035,4.46976 2.056054,8.63455 5.456531,11.07138 3.397082,-2.44079 5.44649,-6.60558 5.449035,-11.07322 -0.0043,-1.84887 -0.36027,-3.67603 -1.045174,-5.36376"
         id="path9-8" /><path
         fill="none"
         stroke="#000000"
         stroke-linecap="round"
         stroke-linejoin="round"
         stroke-miterlimit="10"
         stroke-width="1.949"
         d="m 7.770169,119.40632 c -0.028284,0.94753 -0.01195,1.89328 0.048932,2.83366 3.110916,-1.79386 6.580053,-3.01482 10.209773,-3.59351 -0.132653,-0.45284 -0.200465,-0.92228 -0.201242,-1.39414 9.9e-4,-0.98174 0.291752,-1.94143 0.835729,-2.75877 -2.715361,-3.0132 -4.775446,-6.6654 -6.025257,-10.68227 -0.0015,-0.004 -0.0023,-0.008 -0.004,-0.0119 -1.468165,2.27242 -2.6346791,4.74581 -3.4627718,7.34252 -0.8435784,2.6863 -1.3159257,5.47216 -1.4012028,8.26438 z"
         id="path10-4" /><path
         fill="none"
         stroke="#000000"
         stroke-linecap="round"
         stroke-linejoin="round"
         stroke-miterlimit="10"
         stroke-width="1.949"
         d="m 26.961047,114.48486 c 0.547371,0.81876 0.839972,1.78141 0.840821,2.76641 -0.0011,0.47815 -0.07106,0.95368 -0.207607,1.41195 3.630428,0.57205 7.101191,1.78672 10.214723,3.57471 0.06194,-0.94102 0.0792,-1.88741 0.05176,-2.83564 -0.08535,-2.79158 -0.557553,-5.57674 -1.400778,-8.26198 -0.826891,-2.59564 -1.991991,-5.06804 -3.458601,-7.33948 -1.254478,4.01842 -3.319725,7.6714 -6.040318,10.68417 z"
         id="path11" /><path
         fill="none"
         stroke="#000000"
         stroke-linecap="round"
         stroke-linejoin="round"
         stroke-miterlimit="10"
         stroke-width="1.949"
         d="m 25.096406,112.82245 c 0.817345,0.43607 1.373555,1.01915 1.882036,1.68815 4.74808,-5.25876 7.417479,-12.37161 7.425894,-19.78782 -0.0077,-9.497929 -4.369496,-18.347016 -11.595774,-23.524806 -7.217933,5.186416 -11.572509,14.03607 -11.576893,23.52813 0.01322,7.412666 2.684248,14.518246 7.431551,19.769436 0.530754,-0.80045 1.275762,-1.40898 2.126977,-1.78941"
         id="path12" /><path
         fill="none"
         stroke="#000000"
         stroke-linecap="round"
         stroke-linejoin="round"
         stroke-miterlimit="10"
         stroke-width="1.949"
         d="m 22.33374,102.64648 -1.41e-4,1.4e-4 c -0.846619,2.56955 -1.350433,5.25734 -1.495672,7.97899 -0.137038,2.81146 0.110025,5.62546 0.733057,8.34775 0.211567,0.92419 0.465913,1.83544 0.762049,2.73021"
         id="path13" /></g><path
       fill="#ffffff"
       fill-rule="evenodd"
       d="m 68.517271,96.850635 c 0,2.417333 -1.959514,4.376855 -4.376847,4.376855 2.417333,0 4.376847,1.95951 4.376847,4.37684 0,-2.41733 1.959514,-4.37684 4.376846,-4.37684 -2.417332,0 -4.376846,-1.959522 -4.376846,-4.376855 z"
       clip-rule="evenodd"
       id="path2-5"
       style="fill:#ffd42a;stroke-width:4.37685" /><path
       fill="#ffffff"
       d="m 64.140424,100.13327 c -0.604443,0 -1.094213,0.48977 -1.094213,1.09422 0,0.60443 0.48977,1.09421 1.094213,1.09421 z m 5.471059,-3.282635 c 0,-0.604441 -0.489769,-1.094211 -1.094212,-1.094211 -0.604443,0 -1.094213,0.48977 -1.094213,1.094211 z m -2.188425,8.753695 c 0,0.60445 0.48977,1.09421 1.094213,1.09421 0.604443,0 1.094212,-0.48976 1.094212,-1.09421 z m 5.471059,-3.28263 c 0.604443,0 1.094213,-0.48978 1.094213,-1.09421 0,-0.60445 -0.48977,-1.09422 -1.094213,-1.09422 z m -8.753693,0 c 3.021774,0 5.471059,-2.449289 5.471059,-5.471065 h -2.188425 c 0,1.812891 -1.469744,3.282635 -3.282634,3.282635 z m 5.471059,3.28263 c 0,-3.02178 -2.449285,-5.47106 -5.471059,-5.47106 v 2.18843 c 1.81289,0 3.282634,1.46974 3.282634,3.28263 z m 3.282634,-5.47106 c -3.021775,0 -5.471059,2.44928 -5.471059,5.47106 h 2.188425 c 0,-1.81289 1.469745,-3.28263 3.282634,-3.28263 z m -5.471059,-3.282635 c 0,3.021776 2.449284,5.471065 5.471059,5.471065 v -2.18843 c -1.812889,0 -3.282634,-1.469744 -3.282634,-3.282635 z"
       id="path3-9"
       style="fill:#ffd42a;fill-opacity:1;stroke-width:4.37685" /><path
       fill="#ffffff"
       fill-rule="evenodd"
       d="m 90.401507,105.60433 c 0,2.41733 -1.959514,4.37685 -4.376846,4.37685 2.417332,0 4.376846,1.95951 4.376846,4.37684 0,-2.41733 1.959516,-4.37684 4.376849,-4.37684 -2.417333,0 -4.376849,-1.95952 -4.376849,-4.37685 z"
       clip-rule="evenodd"
       id="path4-84"
       style="fill:#ffd42a;stroke-width:4.37685" /><path
       fill="#ffffff"
       d="m 86.024661,108.88697 c -0.604443,0 -1.094213,0.48977 -1.094213,1.09421 0,0.60444 0.48977,1.09421 1.094213,1.09421 z m 5.471058,-3.28264 c 0,-0.60444 -0.489769,-1.09421 -1.094212,-1.09421 -0.604441,0 -1.09421,0.48977 -1.09421,1.09421 z m -2.188422,8.75369 c 0,0.60445 0.489769,1.09421 1.09421,1.09421 0.604443,0 1.094212,-0.48976 1.094212,-1.09421 z m 5.471059,-3.28263 c 0.604443,0 1.094211,-0.48977 1.094211,-1.09421 0,-0.60444 -0.489768,-1.09421 -1.094211,-1.09421 z m -8.753695,0 c 3.021775,0 5.471058,-2.44928 5.471058,-5.47106 h -2.188422 c 0,1.81289 -1.469747,3.28264 -3.282636,3.28264 z m 5.471058,3.28263 c 0,-3.02177 -2.449283,-5.47105 -5.471058,-5.47105 v 2.18842 c 1.812889,0 3.282636,1.46975 3.282636,3.28263 z m 3.282637,-5.47105 c -3.021776,0 -5.471059,2.44928 -5.471059,5.47105 h 2.188422 c 0,-1.81288 1.469747,-3.28263 3.282637,-3.28263 z m -5.471059,-3.28264 c 0,3.02178 2.449283,5.47106 5.471059,5.47106 v -2.18842 c -1.81289,0 -3.282637,-1.46975 -3.282637,-3.28264 z"
       id="path5-81"
       style="fill:#ffd42a;fill-opacity:1;stroke-width:4.37685" /><path
       fill="#ffffff"
       fill-rule="evenodd"
       d="m 86.024661,88.096941 c 0,2.417333 -1.959515,4.376847 -4.376848,4.376847 2.417333,0 4.376848,1.959516 4.376848,4.376847 0,-2.417331 1.959513,-4.376847 4.376846,-4.376847 -2.417333,0 -4.376846,-1.959514 -4.376846,-4.376847 z"
       clip-rule="evenodd"
       id="path6-0"
       style="fill:#ffd42a;stroke-width:4.37685" /><path
       fill="#ffffff"
       d="m 81.647813,91.379576 c -0.604443,0 -1.094212,0.489769 -1.094212,1.094212 0,0.604443 0.489769,1.094212 1.094212,1.094212 z m 5.471059,-3.282635 c 0,-0.604443 -0.489769,-1.094212 -1.094211,-1.094212 -0.604443,0 -1.094213,0.489769 -1.094213,1.094212 z m -2.188424,8.753694 c 0,0.604443 0.48977,1.094212 1.094213,1.094212 0.604442,0 1.094211,-0.489769 1.094211,-1.094212 z M 90.401507,93.568 c 0.604443,0 1.094212,-0.489769 1.094212,-1.094212 0,-0.604443 -0.489769,-1.094212 -1.094212,-1.094212 z m -8.753694,0 c 3.021776,0 5.471059,-2.449283 5.471059,-5.471059 h -2.188424 c 0,1.81289 -1.469745,3.282635 -3.282635,3.282635 z m 5.471059,3.282635 c 0,-3.021774 -2.449283,-5.471059 -5.471059,-5.471059 V 93.568 c 1.81289,0 3.282635,1.469745 3.282635,3.282635 z m 3.282635,-5.471059 c -3.021774,0 -5.471059,2.449285 -5.471059,5.471059 h 2.188424 c 0,-1.81289 1.469745,-3.282635 3.282635,-3.282635 z m -5.471059,-3.282635 c 0,3.021776 2.449285,5.471059 5.471059,5.471059 v -2.188424 c -1.81289,0 -3.282635,-1.469745 -3.282635,-3.282635 z"
       id="path7-30"
       style="fill:#ffd42a;fill-opacity:1;stroke-width:4.37685" /><circle
       cx="114.47419"
       cy="103.41591"
       r="2.1884236"
       fill="#ffffff"
       id="circle8"
       style="fill:#ffd42a;stroke:none;stroke-width:4.37685;stroke-opacity:1" /><circle
       cx="88.213081"
       cy="129.67699"
       r="2.1884236"
       fill="#ffffff"
       id="circle9"
       style="fill:#ffd42a;stroke:none;stroke-width:4.37685;stroke-opacity:1" /><circle
       cx="79.459389"
       cy="116.54644"
       r="2.1884236"
       fill="#ffffff"
       id="circle10"
       style="fill:#ffd42a;stroke:none;stroke-width:4.37685;stroke-opacity:1" /><circle
       cx="79.459389"
       cy="103.41591"
       r="2.1884236"
       fill="#ffffff"
       id="circle11"
       style="fill:#ffd42a;stroke:none;stroke-width:4.37685;stroke-opacity:1" /><circle
       cx="70.705696"
       cy="90.28537"
       r="2.1884236"
       fill="#ffffff"
       id="circle12"
       style="fill:#ffd42a;stroke:none;stroke-width:4.37685;stroke-opacity:1" /><circle
       cx="57.57515"
       cy="116.54644"
       r="2.1884236"
       fill="#ffffff"
       id="circle13"
       style="fill:#ffd42a;stroke:none;stroke-width:4.37685;stroke-opacity:1" /><circle
       cx="70.705696"
       cy="120.92331"
       r="2.1884236"
       fill="#ffffff"
       id="circle14"
       style="fill:#ffd42a;stroke:none;stroke-width:4.37685;stroke-opacity:1" /><circle
       cx="105.72048"
       cy="81.531662"
       r="2.1884236"
       fill="#ffffff"
       id="circle15"
       style="fill:#ffd42a;stroke:none;stroke-width:4.37685;stroke-opacity:1" /><circle
       cx="70.705696"
       cy="77.154816"
       r="2.1884236"
       fill="#ffffff"
       id="circle16"
       style="fill:#ffd42a;stroke:none;stroke-width:4.37685;stroke-opacity:1" /><circle
       cx="88.213081"
       cy="72.777969"
       r="2.1884236"
       fill="#ffffff"
       id="circle17"
       style="fill:#ffd42a;stroke:none;stroke-width:4.37685;stroke-opacity:1" /><circle
       cx="53.198303"
       cy="99.039062"
       r="2.1884236"
       fill="#ffffff"
       id="circle18"
       style="fill:#ffd42a;stroke:none;stroke-width:4.37685;stroke-opacity:1" /><path
       fill="none"
       stroke="#ffffff"
       stroke-linecap="round"
       stroke-linejoin="round"
       d="m 44.3934,63.707834 -1.872416,3.744393 7.488787,-5.616371"
       id="path19-4"
       style="stroke-width:4.37685" /><path
       fill="none"
       stroke="#ffffff"
       stroke-linecap="round"
       stroke-linejoin="round"
       d="m 36.905051,69.324643 c -1.497757,2.995514 -1.872415,6.240508 -1.872415,7.488785 l 3.744394,-1.872416"
       id="path20"
       style="stroke-width:4.37685" /><path
       fill="none"
       stroke="#ffffff"
       stroke-linecap="round"
       stroke-linejoin="round"
       d="m 25.671435,88.046607 c 1.248278,4.368532 4.493272,11.6074 7.488786,5.616371 m -3.744392,-16.84955 c 0,4.368532 1.123536,11.982058 5.616807,7.488785"
       id="path21"
       style="stroke-width:4.37685" /><path
       fill="none"
       stroke="#ffffff"
       stroke-linecap="round"
       stroke-linejoin="round"
       d="m 23.799458,99.279786 c 1.247839,4.368094 4.867492,11.607394 9.360763,5.616374"
       id="path22"
       style="stroke-width:4.37685" /><path
       fill="none"
       stroke="#ffffff"
       stroke-linecap="round"
       stroke-linejoin="round"
       d="m 21.927042,108.64055 c 1.872416,4.36853 6.739908,11.6074 11.233179,5.61637"
       id="path23"
       style="stroke-width:4.37685" /><path
       fill="none"
       stroke="#ffffff"
       stroke-linecap="round"
       stroke-linejoin="round"
       d="m 25.671435,121.74615 c 3.744394,5.61636 11.233179,5.61636 13.105595,0"
       id="path24"
       style="stroke-width:4.37685" /><path
       fill="none"
       stroke="#ffffff"
       stroke-linecap="round"
       stroke-linejoin="round"
       d="m 35.032636,132.97889 c 2.496116,1.87242 9.361202,5.24215 9.361202,-3.7444"
       id="path25"
       style="stroke-width:4.37685" /><path
       fill="none"
       stroke="#ffffff"
       stroke-linecap="round"
       stroke-linejoin="round"
       d="m 42.520984,142.34008 c 1.872416,0.62414 5.99103,1.49776 7.488787,0 1.497757,-1.49776 1.248277,-4.36852 0,-5.6168"
       id="path26"
       style="stroke-width:4.37685" /><path
       fill="none"
       stroke="#ffffff"
       stroke-linecap="round"
       stroke-linejoin="round"
       d="m 121.52658,63.707834 1.87242,3.744393 -7.48879,-5.616371"
       id="path28"
       style="stroke-width:4.37685" /><path
       fill="none"
       stroke="#ffffff"
       stroke-linecap="round"
       stroke-linejoin="round"
       d="m 129.01538,69.324643 c 1.49774,2.995514 1.87196,6.240508 1.87196,7.488785 l -3.74438,-1.872416"
       id="path29"
       style="stroke-width:4.37685" /><path
       fill="none"
       stroke="#ffffff"
       stroke-linecap="round"
       stroke-linejoin="round"
       d="m 140.24855,88.046607 c -1.24827,4.368532 -4.49327,11.6074 -7.48879,5.616371 m 3.74439,-16.84955 c 0,4.368532 -1.12353,11.982058 -5.61638,7.488785"
       id="path30"
       style="stroke-width:4.37685" /><path
       fill="none"
       stroke="#ffffff"
       stroke-linecap="round"
       stroke-linejoin="round"
       d="m 142.12053,99.279786 c -1.24785,4.368094 -4.8675,11.607394 -9.36077,5.616374"
       id="path31"
       style="stroke-width:4.37685" /><path
       fill="none"
       stroke="#ffffff"
       stroke-linecap="round"
       stroke-linejoin="round"
       d="m 143.99295,108.64055 c -1.87242,4.36853 -6.73992,11.6074 -11.23319,5.61637"
       id="path32"
       style="stroke-width:4.37685" /><path
       fill="none"
       stroke="#ffffff"
       stroke-linecap="round"
       stroke-linejoin="round"
       d="m 140.24855,121.74615 c -3.7444,5.61636 -11.23317,5.61636 -13.10515,0"
       id="path33"
       style="stroke-width:4.37685" /><path
       fill="none"
       stroke="#ffffff"
       stroke-linecap="round"
       stroke-linejoin="round"
       d="m 130.88734,132.97889 c -2.4961,1.87242 -9.36076,5.24215 -9.36076,-3.7444"
       id="path34"
       style="stroke-width:4.37685" /><path
       fill="none"
       stroke="#ffffff"
       stroke-linecap="round"
       stroke-linejoin="round"
       d="m 123.399,142.34008 c -1.87242,0.62414 -5.99103,1.49776 -7.48879,0 -1.49776,-1.49776 -1.24828,-4.36852 0,-5.6168"
       id="path35"
       style="stroke-width:4.37685" /><circle
       cx="81.647812"
       cy="101.22749"
       r="39.391628"
       fill="none"
       stroke="#ffffff"
       stroke-width="5.03337"
       id="circle36" /><g
       id="color-6"
       transform="matrix(0.52426299,-0.31626646,0.31526768,0.52592388,43.819462,154.54461)"><path
         fill="#d0cfce"
         stroke="#d0cfce"
         stroke-linecap="round"
         stroke-linejoin="round"
         stroke-miterlimit="10"
         stroke-width="2"
         d="m 27.1244,42.9616 v 11.2545 c 0,0 -0.1171,1.9012 2.5264,1.9012 2.6435,0 11.7694,0 11.7694,0 0,0 2.2545,0.5562 2.2545,-2.4086 0,-1.6448 0,-6.6322 0,-10.7472"
         id="path1-3" /><path
         fill="#d0cfce"
         stroke="none"
         stroke-linecap="round"
         stroke-linejoin="round"
         stroke-miterlimit="10"
         stroke-width="2"
         d="m 27.1244,46.7322 v 8.0389 c 0,0 -0.1171,1.358 2.5264,1.358 2.6435,0 11.7694,0 11.7694,0 0,0 2.2545,0.3973 2.2545,-1.7204 0,-1.1748 0,-4.7373 0,-7.6766"
         id="path2-9" /><path
         fill="#ea5a47"
         stroke="none"
         d="m 60.996,33.9584 c 0,8.8366 -11.1929,9 -25,9 -13.8071,0 -25,-0.1634 -25,-9 0,-8.8366 11.1929,-23 25,-23 13.8071,0 25,14.1634 25,23 z"
         id="path3-4" /><path
         fill="none"
         stroke="#ffffff"
         stroke-linecap="round"
         stroke-linejoin="round"
         stroke-miterlimit="10"
         stroke-width="2"
         d="m 60.996,33.9584 c 0,8.8366 -11.1929,9 -25,9 -13.8071,0 -25,-0.1634 -25,-9 0,-8.8366 11.1929,-23 25,-23 13.8071,0 25,14.1634 25,23 z"
         id="path4-8" /><path
         fill="#d22f27"
         stroke="none"
         d="m 60.996,33.9591 c 0,8.8374 -11.194,9.0023 -25.0039,9.0023 33.1736,-7.5962 0,-32.0031 0,-32.0031 13.8099,0 25.0039,14.1634 25.0039,23.0008 z"
         id="path5-1" /><path
         fill="#ffffff"
         stroke="none"
         stroke-linecap="round"
         stroke-linejoin="round"
         stroke-miterlimit="10"
         stroke-width="2"
         d="m 22.7421,15.3869 c 0,0 4.6919,14.1211 -10.9254,14.0122 0,-10e-5 3.005,-9.0637 10.9254,-14.0122 z"
         id="path6-2" /><ellipse
         cx="35.995998"
         cy="30.148899"
         rx="8.0207996"
         ry="6.1759"
         transform="matrix(0.9993,-0.0382,0.0382,0.9993,-1.1252,1.3968)"
         fill="#ffffff"
         stroke="none"
         stroke-linecap="round"
         stroke-linejoin="round"
         stroke-miterlimit="10"
         stroke-width="2"
         id="ellipse6-9" /><path
         fill="#d0cfce"
         stroke="none"
         stroke-linecap="round"
         stroke-linejoin="round"
         stroke-miterlimit="10"
         stroke-width="2"
         d="m 49.1551,15.3869 c 0,0 -4.6919,14.1211 10.9254,14.0122 -1e-4,-10e-5 -3.0051,-9.0637 -10.9254,-14.0122 z"
         id="path7-3" /></g><path
       fill="none"
       stroke="#000000"
       stroke-linecap="round"
       stroke-linejoin="round"
       stroke-miterlimit="10"
       stroke-width="1.26537"
       d="m 72.650602,170.51262 2.660887,4.2935 c 0,0 0.385044,0.7629 1.840097,-0.0862 1.455053,-0.84903 6.47819,-3.78006 6.47819,-3.78006 0,0 1.372443,-0.51191 0.671482,-1.64295 -0.38886,-0.62745 -1.568052,-2.53015 -2.540964,-4.1"
       id="path8-0" /><path
       fill="none"
       stroke="#000000"
       stroke-linecap="round"
       stroke-linejoin="round"
       stroke-miterlimit="10"
       stroke-width="1.24856"
       d="m 87.002745,152.78209 c 2.842923,4.72753 -3.092651,8.41594 -10.479378,12.85798 -7.386726,4.44204 -13.427439,7.95561 -16.270361,3.22808 -2.842922,-4.72754 -1.411447,-15.90587 5.97528,-20.34791 7.386727,-4.44204 17.931537,-0.46569 20.774459,4.26185 z"
       id="path9-9" /><path
       fill="none"
       stroke="#000000"
       stroke-linecap="round"
       stroke-linejoin="round"
       stroke-miterlimit="10"
       stroke-width="1.23799"
       d="m 87.007784,153.13945 c 2.843968,4.64607 -3.093789,8.27093 -10.483232,12.63644 -7.389444,4.3655 -13.432379,7.81852 -16.276346,3.17245 -2.843968,-4.64609 -1.411967,-15.63181 5.977478,-19.99731 7.389443,-4.36549 17.938133,-0.45766 20.7821,4.18842 z"
       id="path10-6" /><path
       fill="none"
       stroke="#000000"
       stroke-linecap="round"
       stroke-linejoin="round"
       stroke-miterlimit="10"
       stroke-width="1.24856"
       d="m 60.562261,155.15352 c 0,0 7.053201,6.04523 -1.337009,11.01139 -3.2e-5,-5e-5 -1.308326,-5.8158 1.337009,-11.01139 z"
       id="path11-3" /><ellipse
       cx="-26.39143"
       cy="172.50803"
       rx="5.0073647"
       ry="3.8555984"
       transform="rotate(-33.209934)"
       fill="none"
       stroke="#000000"
       stroke-linecap="round"
       stroke-linejoin="round"
       stroke-miterlimit="10"
       stroke-width="1.24859"
       id="ellipse11" /><path
       fill="none"
       stroke="#000000"
       stroke-linecap="round"
       stroke-linejoin="round"
       stroke-miterlimit="10"
       stroke-width="1.24856"
       d="m 74.693079,146.6559 c 0,0 2.032916,9.0642 10.353055,3.98152 -8.6e-5,-2e-5 -4.523698,-3.88223 -10.353055,-3.98152 z"
       id="path12-8" /><g
       id="g23"
       transform="matrix(-0.04408077,-0.47467999,0.47467999,-0.04408077,43.575139,191.02055)"><g
         id="g18"
         transform="rotate(-90,83.483461,62.994931)"><g
           id="color-9"><rect
             x="22.184401"
             y="50.233601"
             width="2"
             height="6.8467002"
             transform="rotate(-45,23.184416,53.6569)"
             fill="#92d3f5"
             id="rect1" /><rect
             x="17.342899"
             y="45.391899"
             width="2"
             height="6.8471999"
             transform="rotate(-45,18.342908,48.815419)"
             fill="#ea5a47"
             id="rect2" /><rect
             x="30.141199"
             y="33.313801"
             width="2"
             height="6.2505002"
             transform="rotate(-45,31.141221,36.438984)"
             fill="#92d3f5"
             id="rect3" /><rect
             x="34.560799"
             y="37.733601"
             width="2"
             height="6.25"
             transform="rotate(-45,35.5608,40.858634)"
             fill="#ea5a47"
             id="rect4" /><rect
             x="38.4468"
             y="33.971199"
             width="2"
             height="6.8467002"
             transform="rotate(-45,39.446808,37.394497)"
             fill="#92d3f5"
             id="rect5" /><rect
             x="33.605301"
             y="29.1294"
             width="2"
             height="6.8471999"
             transform="rotate(-45,34.6053,32.553015)"
             fill="#ea5a47"
             id="rect6" /><polygon
             fill="#92d3f5"
             points="38.1518,28.0435 41.7477,30.2523 40.0161,31.9839 37.1138,29.0815 "
             id="polygon6-7" /><polygon
             fill="#ea5a47"
             points="41.7477,30.2523 44.0376,33.767 42.9185,34.8862 40.0161,31.9839 "
             id="polygon7-7" /><rect
             x="51.351799"
             y="20.9426"
             width="2"
             height="6.25"
             transform="rotate(-45,52.351899,24.067534)"
             fill="#92d3f5"
             id="rect7" /><rect
             x="46.932301"
             y="16.522699"
             width="2"
             height="6.2505002"
             transform="rotate(-45,47.93227,19.648004)"
             fill="#ea5a47"
             id="rect8" /><rect
             x="55.8358"
             y="16.582199"
             width="2"
             height="6.8467002"
             transform="rotate(-45,56.835857,20.005517)"
             fill="#92d3f5"
             id="rect9" /><rect
             x="50.994301"
             y="11.7404"
             width="2"
             height="6.8471999"
             transform="rotate(-45,51.994349,15.164035)"
             fill="#ea5a47"
             id="rect10" /><rect
             x="17.888901"
             y="54.529099"
             width="2"
             height="6.8467002"
             transform="rotate(-45,18.888861,57.952378)"
             fill="#92d3f5"
             id="rect11" /><rect
             x="13.0474"
             y="49.687302"
             width="2"
             height="6.8471999"
             transform="rotate(-45,14.047353,53.110896)"
             fill="#ea5a47"
             id="rect12" /><path
             fill="#92d3f5"
             d="m 48.8128,31.8422 c 0.792,3.9598 0.3747,8.4358 -4.08,12.8905 -4.4548,4.4548 -8.9308,4.872 -12.8905,4.08 C 29.7139,48.3814 27.7269,47.5965 25.9662,46.9106 25.754,46.8258 25.542,46.7409 25.3369,46.6631 20.7478,44.8883 18.0962,44.2165 15.091,47.2217 l -4.4407,4.4407 c -1.0748,1.0748 -2.8143,1.0748 -3.8891,0 -1.0748,-1.0748 -1.0748,-2.8143 0,-3.8891 l 4.4407,-4.4407 c 4.0446,-4.0446 8.2024,-4.1436 11.9854,-3.1749 1.6829,0.4101 3.2951,1.0465 4.7871,1.6334 0.5586,0.2192 1.0961,0.4313 1.6122,0.6223 4.5326,1.6758 7.5731,2.1142 11.2571,-1.5698 3.684,-3.684 3.2456,-6.7245 1.5698,-11.2571 0.5162,0.1909 1.0536,0.4031 1.6122,0.6223 1.4919,0.5869 3.1042,1.2233 4.7871,1.6334 z"
             id="path12-6" /><path
             fill="#92d3f5"
             d="m 51.6624,6.7612 c 1.0748,1.0748 1.0748,2.8143 0,3.8891 l -4.4407,4.4407 c -3.0052,3.0052 -2.3334,5.6568 -0.5586,10.2459 -0.2051,-0.0778 -0.4172,-0.1626 -0.6293,-0.2475 -1.7607,-0.6859 -3.7477,-1.4708 -5.8761,-1.9021 -0.9687,-3.783 -0.8697,-7.9408 3.1749,-11.9854 l 4.4407,-4.4407 c 1.0748,-1.0748 2.8143,-1.0748 3.8891,0 z"
             id="path13-73" /><path
             fill="#ea5a47"
             d="m 25.9662,46.9107 c 1.7607,0.6859 3.7477,1.4708 5.8761,1.9021 0.9687,3.783 0.8697,7.9408 -3.1749,11.9854 l -4.4407,4.4407 c -1.0748,1.0748 -2.8143,1.0748 -3.8891,0 -1.0748,-1.0748 -1.0748,-2.8143 0,-3.8891 l 4.4407,-4.4407 c 3.0052,-3.0052 2.3334,-5.6568 0.5586,-10.2459 0.2051,0.0778 0.4172,0.1626 0.6293,0.2475 z"
             id="path14" /><path
             fill="#ea5a47"
             d="m 65.2388,20.3376 c 1.0748,1.0748 1.0748,2.8143 0,3.8891 l -4.4407,4.4407 c -4.0446,4.0446 -8.2024,4.1436 -11.9854,3.1749 -1.6829,-0.4101 -3.2951,-1.0465 -4.7871,-1.6334 -0.5586,-0.2192 -1.0961,-0.4313 -1.6122,-0.6223 -4.5326,-1.6758 -7.5731,-2.1142 -11.2571,1.5698 -3.684,3.684 -3.2456,6.7245 -1.5698,11.2571 -0.5162,-0.1909 -1.0536,-0.4031 -1.6122,-0.6223 -1.4919,-0.5869 -3.1042,-1.2233 -4.7871,-1.6334 -0.792,-3.9598 -0.3747,-8.4358 4.08,-12.8905 4.4547,-4.4547 8.9308,-4.872 12.8905,-4.08 2.1284,0.4313 4.1154,1.2162 5.8761,1.9021 0.2122,0.0848 0.4242,0.1697 0.6293,0.2475 4.5891,1.7748 7.2407,2.4466 10.2459,-0.5586 l 4.4407,-4.4407 c 1.0748,-1.0748 2.8143,-1.0748 3.8891,0 z"
             id="path15" /></g><g
           id="line-65"><g
             id="g17"><path
               fill="none"
               stroke="#000000"
               stroke-miterlimit="10"
               stroke-width="2"
               d="m 23.1932,40.1518 c -0.7944,-3.9626 -0.3766,-8.4301 4.076,-12.8827 6.8508,-6.8508 13.7371,-4.1505 18.7646,-2.1779 4.9843,1.9542 7.7305,2.8277 10.8738,-0.3156 l 4.4401,-4.4401 c 1.0738,-1.0738 2.8153,-1.0738 3.8891,0 1.0738,1.0738 1.0738,2.8153 0,3.8891 l -4.4401,4.4401 c -5.835,5.835 -11.8986,3.4575 -16.7703,1.5468 -5.469,-2.1448 -8.7629,-3.1585 -12.8681,0.9467 -3.684,3.684 -3.2459,6.7149 -1.5669,11.2503"
               id="path16" /><path
               fill="none"
               stroke="#000000"
               stroke-miterlimit="10"
               stroke-width="2"
               d="m 31.8511,48.8057 c 0.9568,3.7914 0.8586,7.946 -3.1864,11.991 l -4.4401,4.4401 c -1.0738,1.0738 -2.8153,1.0738 -3.8891,0 -1.0738,-1.0738 -1.0738,-2.8153 0,-3.8891 l 4.4401,-4.4401 c 3.0081,-3.0081 2.3373,-5.6531 0.5607,-10.2439"
               id="path17" /></g><g
             id="g19"><path
               fill="none"
               stroke="#000000"
               stroke-miterlimit="10"
               stroke-width="2"
               d="m 40.1484,23.193 c -0.9565,-3.7911 -0.8576,-7.9453 3.1868,-11.9897 l 4.4401,-4.4401 c 1.0738,-1.0738 2.8153,-1.0738 3.8891,0 1.0738,1.0738 1.0738,2.8153 0,3.8891 l -4.4401,4.4401 c -3.0084,3.0084 -2.337,5.6534 -0.5609,10.2443"
               id="path18" /><path
               fill="none"
               stroke="#000000"
               stroke-miterlimit="10"
               stroke-width="2"
               d="m 48.8073,31.851 c 0.7937,3.9617 0.3748,8.4283 -4.0766,12.8797 -6.8508,6.8508 -13.7371,4.1498 -18.7649,2.1783 -4.9836,-1.9542 -7.7305,-2.8277 -10.8735,0.3152 l -4.4401,4.4401 c -1.0738,1.0738 -2.8153,1.0738 -3.8891,0 -1.0738,-1.0738 -1.0738,-2.8153 0,-3.8891 l 4.4401,-4.4401 c 5.835,-5.835 11.8982,-3.4572 16.7707,-1.5465 5.4683,2.1448 8.7625,3.1582 12.8678,-0.9471 3.6841,-3.6841 3.2456,-6.7147 1.5671,-11.2501"
               id="path19" /></g><line
             x1="50.983799"
             x2="60.667099"
             y1="11.3328"
             y2="21.0161"
             fill="none"
             stroke="#000000"
             stroke-linecap="round"
             stroke-linejoin="round"
             stroke-width="2"
             id="line19" /><line
             x1="46.712399"
             x2="56.347099"
             y1="15.6527"
             y2="25.2875"
             fill="none"
             stroke="#000000"
             stroke-linecap="round"
             stroke-linejoin="round"
             stroke-width="2"
             id="line20" /><line
             x1="35.223701"
             x2="43.423"
             y1="28.5769"
             y2="36.776199"
             fill="none"
             stroke="#000000"
             stroke-linecap="round"
             stroke-linejoin="round"
             stroke-width="2"
             id="line21" /><line
             x1="30.7892"
             x2="40.459"
             y1="31.540899"
             y2="41.210602"
             fill="none"
             stroke="#000000"
             stroke-linecap="round"
             stroke-linejoin="round"
             stroke-width="2"
             id="line22" /><line
             x1="28.361099"
             x2="35.488701"
             y1="36.5112"
             y2="43.638802"
             fill="none"
             stroke="#000000"
             stroke-linecap="round"
             stroke-linejoin="round"
             stroke-width="2"
             id="line23" /><line
             x1="17.735001"
             x2="26.546301"
             y1="45.453602"
             y2="54.2649"
             fill="none"
             stroke="#000000"
             stroke-linecap="round"
             stroke-linejoin="round"
             stroke-width="2"
             id="line24" /><line
             x1="13.0033"
             x2="22.686701"
             y1="49.313202"
             y2="58.996601"
             fill="none"
             stroke="#000000"
             stroke-linecap="round"
             stroke-linejoin="round"
             stroke-width="2"
             id="line25" /></g></g></g><g
       id="g25"
       transform="matrix(0.37145258,-0.21988167,0.21988167,0.37145258,22.973932,92.486217)"><path
         fill="#d0cfce"
         stroke="none"
         d="m 106.74382,37.733523 c -0.06,0.01 -0.12,0.02 -0.18,0.03 -0.07,0 -0.14,0.01 -0.22,0.02 0.08,-0.01 0.16,-0.02 0.24,-0.03 0.06,0 0.11,-0.01 0.16,-0.02 z"
         id="path1-8" /><path
         fill="#d0cfce"
         stroke="none"
         d="m 106.58382,37.753523 c -0.01,0 -0.01,0 -0.02,0.01 -0.07,0 -0.14,0.01 -0.22,0.02 0.08,-0.01 0.16,-0.02 0.24,-0.03 z"
         id="path2-97" /><path
         fill="#d0cfce"
         stroke="none"
         d="m 106.74382,37.733523 c -0.06,0.01 -0.12,0.02 -0.18,0.03 -0.07,0 -0.14,0.01 -0.22,0.02 0.08,-0.01 0.16,-0.02 0.24,-0.03 0.06,0 0.11,-0.01 0.16,-0.02 z"
         id="path3-7" /><path
         fill="#d0cfce"
         stroke="none"
         d="m 107.59382,38.553523 c -0.3,0.3 -4.65,0.55 -10.690001,0.73 -1.62,0.04 -3.36,0.08 -5.17,0.12 -1.18,0.02 -2.4,0.04 -3.64,0.05 -0.42,0 -0.83,0.01 -1.25,0.01 -0.12,0.01 -0.23,0.01 -0.35,0.01 -0.65,0.01 -1.3,0.01 -1.96,0.02 -1.01,0.01 -2.02,0.02 -3.04,0.02 -3.04,0.02 -6.08,0.01 -8.92,-0.02 -1.15,-0.01 -2.27,-0.03 -3.34,-0.04 -0.16,-0.01 -0.31,-0.01 -0.47,-0.01 -0.51,-0.01 -1.01,-0.02 -1.5,-0.03 -5.98,-0.15 -10.32,-0.42 -10.76,-0.86 -0.71,-0.72 -0.77,-1.43 -0.61,-1.98 0.17,-0.65 0.61,-1.09 0.61,-1.09 l 10.22,-7.15 h 30.65 l 10.220001,7.15 c 0,0 0.29,0.59 0.4,1.28 0.11,0.6 0.08,1.31 -0.4,1.79 z"
         id="path4-64" /><polygon
         fill="#9b9b9a"
         stroke="none"
         points="40.56,36 40.7961,36.5366 48.75,46.5833 61.2917,45.98 62.1128,44.9583 61.2561,42.7175 51.4,35.85 "
         id="polygon4-3"
         transform="translate(45.933819,-7.5164773)" /><path
         fill="#d0cfce"
         stroke="none"
         d="m 86.903819,38.453523 c -0.21,0 -0.42,0.01 -0.63,0.01 h -0.46 c 0.21,-0.01 0.42,-0.01 0.63,-0.01 z"
         id="path5-0" /><path
         fill="#d0cfce"
         stroke="none"
         d="m 92.153819,38.373523 c -0.11,0 -0.22,0 -0.32,0.01 -0.2,0 -0.4,0 -0.6,0.01 h -0.17 c 0.1,-0.01 0.2,-0.01 0.3,-0.01 0.2,0 0.4,-0.01 0.6,-0.01 z"
         id="path6-3" /><path
         fill="#d0cfce"
         stroke="none"
         d="m 97.293819,38.243523 c 0,0.01 0,0.01 0,0.01 -0.23,0 -0.46,0.01 -0.7,0.02 0.24,-0.01 0.47,-0.02 0.7,-0.03 z"
         id="path7-0" /><path
         fill="#9b9b9a"
         stroke="none"
         d="m 96.903819,39.283523 c -1.63,3.04 -7.43,5.3 -14.38,5.39 0.1,-0.08 0.19,-0.18 0.28,-0.27 1.29,-1.29 2.42,-2.63 3.38,-3.96 0.23,-0.33 0.45,-0.65 0.66,-0.98 1.67,-0.01 3.31,-0.03 4.89,-0.06 1.81,-0.04 3.55,-0.08 5.17,-0.12 z"
         id="path8-9" /><path
         fill="#d0cfce"
         stroke="none"
         d="m 86.843819,39.463523 c -0.21,0.33 -0.43,0.65 -0.66,0.98 -0.96,1.33 -2.09,2.67 -3.38,3.96 -0.09,0.09 -0.18,0.19 -0.28,0.27 -0.15,0.01 -0.31,0.01 -0.47,0.01 -0.87,0 -1.73,-0.03 -2.56,-0.1 -0.88,-0.07 -1.73,-0.17 -2.55,-0.31 -4.63,-0.76 -8.24,-2.53 -9.61,-4.75 -0.03,-0.04 -0.05,-0.07 -0.07,-0.11 1.96,0.04 4.1,0.07 6.34,0.09 0.13,0 0.25,-0.01 0.38,0 4.02,0.03 8.35,0.02 12.51,-0.03 0.12,0 0.23,0 0.35,-0.01 z"
         id="path9-2" /><path
         fill="#d0cfce"
         stroke="none"
         d="m 86.903819,38.453523 c -0.21,0 -0.42,0.01 -0.63,0.01 h -0.46 c 0.21,-0.01 0.42,-0.01 0.63,-0.01 z"
         id="path10-5" /><path
         fill="#d0cfce"
         stroke="none"
         d="m 92.153819,38.373523 c -0.11,0 -0.22,0 -0.32,0.01 -0.2,0 -0.4,0 -0.6,0.01 h -0.17 c 0.1,-0.01 0.2,-0.01 0.3,-0.01 0.2,0 0.4,-0.01 0.6,-0.01 z"
         id="path11-4" /><path
         fill="#9b9b9a"
         stroke="none"
         d="m 86.903819,38.453523 c -0.21,0 -0.42,0.01 -0.63,0.01 0.06,0 0.12,0 0.17,-0.01 z"
         id="path12-0" /><path
         fill="#9b9b9a"
         stroke="none"
         d="m 91.833819,38.383523 c -0.2,0 -0.4,0 -0.6,0.01 0.04,0 0.09,0 0.13,-0.01 z"
         id="path13-5" /><path
         fill="#9b9b9a"
         stroke="none"
         d="m 92.153819,38.373523 c -0.11,0 -0.22,0 -0.32,0.01 0.05,0 0.09,-0.01 0.13,-0.01 z"
         id="path14-9" /><path
         fill="#9b9b9a"
         stroke="none"
         d="m 97.873819,38.233523 c -0.11,0 -0.22,0 -0.33,0.01 0.03,0 0.05,0 0.08,-0.01 z"
         id="path15-4" /><path
         fill="#9b9b9a"
         stroke="none"
         d="m 99.393819,38.183523 c -0.11,0 -0.22,0 -0.33,0.01 0.04,0 0.07,0 0.1,-0.01 z"
         id="path16-6" /><path
         fill="#9b9b9a"
         stroke="none"
         d="m 101.32382,38.103523 c -0.13,0.01 -0.26,0.01 -0.39,0.02 0.03,0 0.06,0 0.08,-0.01 0.11,0 0.21,0 0.31,-0.01 z"
         id="path17-9" /><path
         fill="#9b9b9a"
         stroke="none"
         d="m 106.74382,37.733523 c -0.06,0.01 -0.12,0.02 -0.18,0.03 -0.07,0 -0.14,0.01 -0.22,0.02 0.08,-0.01 0.16,-0.02 0.24,-0.03 0.06,0 0.11,-0.01 0.16,-0.02 z"
         id="path18-2" /><path
         fill="#d0cfce"
         stroke="none"
         d="m 61.583819,38.183523 h -0.08 c -0.11,-0.01 -0.22,-0.02 -0.32,-0.02 0.09,0 0.18,0.01 0.27,0.01 0.05,0 0.09,0.01 0.13,0.01 z"
         id="path19-2" /><path
         fill="#d0cfce"
         stroke="none"
         d="m 62.183819,38.213523 c -0.21,-0.01 -0.41,-0.02 -0.6,-0.03 0.18,0.01 0.35,0.02 0.53,0.02 0.02,0.01 0.05,0.01 0.07,0.01 z"
         id="path20-4" /><path
         fill="#d0cfce"
         stroke="none"
         d="m 66.833819,38.383523 c -0.07,-0.01 -0.13,-0.01 -0.19,-0.01 h 0.18 z"
         id="path21-7" /><path
         fill="#d0cfce"
         stroke="none"
         d="m 86.903819,38.453523 c -0.21,0 -0.42,0.01 -0.63,0.01 h -0.46 c 0.21,-0.01 0.42,-0.01 0.63,-0.01 z"
         id="path22-7" /><path
         fill="#d0cfce"
         stroke="none"
         d="m 92.153819,38.373523 c -0.11,0 -0.22,0 -0.32,0.01 -0.2,0 -0.4,0 -0.6,0.01 h -0.17 c 0.1,-0.01 0.2,-0.01 0.3,-0.01 0.2,0 0.4,-0.01 0.6,-0.01 z"
         id="path23-5" /><path
         fill="#d0cfce"
         stroke="none"
         d="m 97.343819,38.243523 c -0.02,0.01 -0.04,0.01 -0.05,0.01 -0.23,0 -0.46,0.01 -0.7,0.02 0.24,-0.01 0.47,-0.02 0.7,-0.03 z"
         id="path24-4" /><path
         fill="#d0cfce"
         stroke="none"
         d="m 106.58382,37.753523 c -0.01,0 -0.01,0 -0.02,0.01 -0.07,0 -0.14,0.01 -0.22,0.02 0.08,-0.01 0.16,-0.02 0.24,-0.03 z"
         id="path25-8" /><path
         fill="#9b9b9a"
         stroke="none"
         d="m 97.973819,38.223523 c -0.03,0 -0.07,0 -0.1,0.01 -0.11,0 -0.22,0 -0.33,0.01 0.03,0 0.05,0 0.08,-0.01 0.12,0 0.24,0 0.35,-0.01 z"
         id="path26-1" /><path
         fill="#9b9b9a"
         stroke="none"
         d="m 99.473819,38.173523 c -0.02,0 -0.05,0 -0.08,0.01 -0.11,0 -0.22,0 -0.33,0.01 0.04,0 0.07,0 0.1,-0.01 0.11,0 0.21,0 0.31,-0.01 z"
         id="path27-2" /><path
         fill="#9b9b9a"
         stroke="none"
         d="m 101.32382,38.103523 c -0.13,0.01 -0.26,0.01 -0.39,0.02 0.03,0 0.06,0 0.08,-0.01 0.11,0 0.21,0 0.31,-0.01 z"
         id="path28-8" /><path
         fill="#9b9b9a"
         stroke="none"
         d="m 106.74382,37.733523 c -0.06,0.01 -0.12,0.02 -0.18,0.03 -0.07,0 -0.14,0.01 -0.22,0.02 0.08,-0.01 0.16,-0.02 0.24,-0.03 0.06,0 0.11,-0.01 0.16,-0.02 z"
         id="path29-9" /><path
         fill="#d0cfce"
         stroke="none"
         d="m 56.963819,37.723523 c -0.02,0 -0.04,-0.01 -0.06,-0.01 -0.03,-0.01 -0.06,-0.02 -0.09,-0.03 0.04,0.01 0.08,0.02 0.13,0.03 0.01,0 0.01,0.01 0.02,0.01 z"
         id="path30-3" /><path
         fill="#d0cfce"
         stroke="none"
         d="m 61.583819,38.183523 h -0.08 c -0.02,-0.01 -0.03,-0.01 -0.05,-0.01 0.05,0 0.09,0.01 0.13,0.01 z"
         id="path31-6" /><path
         fill="#d0cfce"
         stroke="none"
         d="m 56.963819,37.723523 c -0.02,0 -0.04,-0.01 -0.06,-0.01 -0.03,-0.01 -0.06,-0.02 -0.09,-0.03 0.04,0.01 0.08,0.02 0.13,0.03 0.01,0 0.01,0.01 0.02,0.01 z"
         id="path32-8" /><path
         fill="#d0cfce"
         stroke="none"
         d="m 61.583819,38.183523 h -0.08 c -0.02,-0.01 -0.03,-0.01 -0.05,-0.01 0.05,0 0.09,0.01 0.13,0.01 z"
         id="path33-0" /><path
         fill="#61b2e4"
         stroke="none"
         d="m 97.333819,28.233523 v 0.1 h -10.37 c 1.03,-4.9 -0.35,-10.21 -4.16,-14.01 -0.09,-0.1 -0.19,-0.19 -0.29,-0.28 7.87,0.23 14.25,6.4 14.82,14.19 z"
         id="path34-2" /><path
         fill="#92d3f5"
         stroke="none"
         d="m 86.963819,28.333523 h -20.2 v -0.09 c 0.19,-2.67 1.07,-5.16 2.46,-7.28 2.3,-3.5 5.98,-6 10.27,-6.72 0.83,-0.14 1.69,-0.21 2.56,-0.21 0.15,0 0.31,0 0.46,0.01 0.1,0.09 0.2,0.18 0.29,0.28 3.81,3.8 5.19,9.11 4.16,14.01 z"
         id="path35-1" /><path
         fill="#92d3f5"
         stroke="none"
         stroke-miterlimit="10"
         stroke-width="2"
         d="m 97.973819,33.923723 c 0,0.31 -0.07,0.61 -0.2,0.88 -0.02,0.05 -0.04,0.09 -0.07,0.14 -0.35,0.61 -1.02,1.03 -1.77,1.03 -0.18,0 -0.35,-0.02 -0.51,-0.08 -0.53,-0.13 -0.99,-0.48 -1.25,-0.95 -0.19,-0.3 -0.29,-0.65 -0.29,-1.02 0,-0.55 0.22,-1.06 0.6,-1.42 0.24,-0.27 0.57,-0.46 0.94,-0.55 0.16,-0.05 0.33,-0.07 0.51,-0.07 1.12,0 2.04,0.92 2.04,2.04 z"
         id="path36-0" /><path
         fill="#92d3f5"
         stroke="none"
         stroke-miterlimit="10"
         stroke-width="2"
         d="m 84.128819,33.923723 c 0,0.31 -0.07,0.61 -0.2,0.88 -0.02,0.05 -0.04,0.09 -0.07,0.14 -0.35,0.61 -1.02,1.03 -1.77,1.03 -0.18,0 -0.35,-0.02 -0.51,-0.08 -0.53,-0.13 -0.99,-0.48 -1.25,-0.95 -0.19,-0.3 -0.29,-0.65 -0.29,-1.02 0,-0.55 0.22,-1.06 0.6,-1.42 0.24,-0.27 0.57,-0.46 0.94,-0.55 0.16,-0.05 0.33,-0.07 0.51,-0.07 1.12,0 2.04,0.92 2.04,2.04 z"
         id="path37-5" /><path
         fill="#92d3f5"
         stroke="none"
         stroke-miterlimit="10"
         stroke-width="2"
         d="m 70.378819,33.923723 c 0,0.31 -0.07,0.61 -0.2,0.88 -0.02,0.05 -0.04,0.09 -0.07,0.14 -0.35,0.61 -1.02,1.03 -1.77,1.03 -0.18,0 -0.35,-0.02 -0.51,-0.08 -0.53,-0.13 -0.99,-0.48 -1.25,-0.95 -0.19,-0.3 -0.29,-0.65 -0.29,-1.02 0,-0.55 0.22,-1.06 0.6,-1.42 0.24,-0.27 0.57,-0.46 0.94,-0.55 0.16,-0.05 0.33,-0.07 0.51,-0.07 1.12,0 2.04,0.92 2.04,2.04 z"
         id="path38" /><path
         fill="none"
         stroke="#000000"
         stroke-miterlimit="10"
         stroke-width="2"
         d="m 97.973819,33.923723 c 0,0.31 -0.07,0.61 -0.2,0.88 -0.02,0.05 -0.04,0.09 -0.07,0.14 -0.35,0.61 -1.02,1.03 -1.77,1.03 -0.18,0 -0.35,-0.02 -0.51,-0.08 -0.53,-0.13 -0.99,-0.48 -1.25,-0.95 -0.19,-0.3 -0.29,-0.65 -0.29,-1.02 0,-0.55 0.22,-1.06 0.6,-1.42 0.24,-0.27 0.57,-0.46 0.94,-0.55 0.16,-0.05 0.33,-0.07 0.51,-0.07 1.12,0 2.04,0.92 2.04,2.04 z"
         id="path39" /><path
         fill="none"
         stroke="#000000"
         stroke-miterlimit="10"
         stroke-width="2"
         d="m 84.128819,33.923723 c 0,0.31 -0.07,0.61 -0.2,0.88 -0.02,0.05 -0.04,0.09 -0.07,0.14 -0.35,0.61 -1.02,1.03 -1.77,1.03 -0.18,0 -0.35,-0.02 -0.51,-0.08 -0.53,-0.13 -0.99,-0.48 -1.25,-0.95 -0.19,-0.3 -0.29,-0.65 -0.29,-1.02 0,-0.55 0.22,-1.06 0.6,-1.42 0.24,-0.27 0.57,-0.46 0.94,-0.55 0.16,-0.05 0.33,-0.07 0.51,-0.07 1.12,0 2.04,0.92 2.04,2.04 z"
         id="path40" /><path
         fill="none"
         stroke="#000000"
         stroke-miterlimit="10"
         stroke-width="2"
         d="m 70.378819,33.923723 c 0,0.31 -0.07,0.61 -0.2,0.88 -0.02,0.05 -0.04,0.09 -0.07,0.14 -0.35,0.61 -1.02,1.03 -1.77,1.03 -0.18,0 -0.35,-0.02 -0.51,-0.08 -0.53,-0.13 -0.99,-0.48 -1.25,-0.95 -0.19,-0.3 -0.29,-0.65 -0.29,-1.02 0,-0.55 0.22,-1.06 0.6,-1.42 0.24,-0.27 0.57,-0.46 0.94,-0.55 0.16,-0.05 0.33,-0.07 0.51,-0.07 1.12,0 2.04,0.92 2.04,2.04 z"
         id="path41" /><path
         fill="none"
         stroke="#000000"
         stroke-linecap="round"
         stroke-linejoin="round"
         stroke-miterlimit="10"
         stroke-width="2"
         d="m 107.59382,38.553523 c -0.3,0.3 -4.65,0.55 -10.690001,0.73 -1.62,0.04 -3.36,0.08 -5.17,0.12 -1.18,0.02 -2.4,0.04 -3.64,0.05 -0.42,0 -0.83,0.01 -1.25,0.01 -0.12,0.01 -0.23,0.01 -0.35,0.01 -0.65,0.01 -1.3,0.01 -1.96,0.02 -1.01,0.01 -2.02,0.02 -3.04,0.02 -3.04,0.02 -6.08,0.01 -8.92,-0.02 -1.15,-0.01 -2.27,-0.03 -3.34,-0.04 -0.16,-0.01 -0.31,-0.01 -0.47,-0.01 -0.51,-0.01 -1.01,-0.02 -1.5,-0.03 -5.98,-0.15 -10.32,-0.42 -10.76,-0.86 -0.71,-0.72 -0.77,-1.43 -0.61,-1.98 0.17,-0.65 0.61,-1.09 0.61,-1.09 l 10.22,-7.15 h 30.65 l 10.220001,7.15 c 0,0 0.29,0.59 0.4,1.28 0.11,0.6 0.08,1.31 -0.4,1.79 z"
         id="path42" /><path
         fill="none"
         stroke="#000000"
         stroke-linecap="round"
         stroke-linejoin="round"
         stroke-miterlimit="10"
         stroke-width="2"
         d="m 88.093819,39.453523 c -0.42,0.01 -0.84,0.01 -1.26,0.02 0.01,0 0.01,-0.01 0.01,-0.01 0.42,0 0.83,-0.01 1.25,-0.01 z"
         id="path43" /><path
         fill="none"
         stroke="#000000"
         stroke-linecap="round"
         stroke-linejoin="round"
         stroke-miterlimit="10"
         stroke-width="2"
         d="m 96.903819,39.283523 c -1.63,3.04 -7.43,5.3 -14.38,5.39 -0.15,0.01 -0.31,0.01 -0.47,0.01 -0.87,0 -1.73,-0.03 -2.56,-0.1 -0.88,-0.07 -1.73,-0.17 -2.55,-0.31 -4.63,-0.76 -8.24,-2.53 -9.61,-4.75 -0.03,-0.04 -0.05,-0.07 -0.07,-0.11 0.49,0.01 0.99,0.02 1.5,0.03 0.16,0 0.31,0 0.47,0.01 1.07,0.01 2.19,0.03 3.34,0.04 2.84,0.03 5.88,0.04 8.92,0.02 1.02,0 2.03,-0.01 3.04,-0.02 0.66,-0.01 1.31,-0.01 1.96,-0.02 h 0.34 c 0.42,-0.01 0.84,-0.01 1.26,-0.02 1.24,-0.01 2.46,-0.03 3.64,-0.05 1.81,-0.04 3.55,-0.08 5.17,-0.12 z"
         id="path44" /><path
         fill="none"
         stroke="#000000"
         stroke-linecap="round"
         stroke-linejoin="round"
         stroke-miterlimit="10"
         stroke-width="2"
         d="m 86.843819,39.463523 c 0,0 0,0.01 -0.01,0.01 h -0.34 c 0.12,0 0.23,0 0.35,-0.01 z"
         id="path45" /><path
         fill="none"
         stroke="#000000"
         stroke-linecap="round"
         stroke-linejoin="round"
         stroke-miterlimit="10"
         stroke-width="2"
         d="m 88.093819,39.453523 c -0.42,0.01 -0.84,0.01 -1.26,0.02 h -0.34 c 0.12,0 0.23,0 0.35,-0.01 0.42,0 0.83,-0.01 1.25,-0.01 z"
         id="path46" /><path
         fill="none"
         stroke="#000000"
         stroke-linecap="round"
         stroke-linejoin="round"
         stroke-miterlimit="10"
         stroke-width="2"
         d="m 97.333819,28.233523 v 0.1 h -30.57 v -0.09 c 0.19,-2.67 1.07,-5.16 2.46,-7.28 2.3,-3.5 5.98,-6 10.27,-6.72 0.83,-0.14 1.69,-0.21 2.56,-0.21 0.15,0 0.31,0 0.46,0.01 7.87,0.23 14.25,6.4 14.82,14.19 z"
         id="path47" /></g></g></svg>
